<?xml version="1.0" encoding="UTF-8" standalone="no"?>
<!-- Generator: Adobe Illustrator 25.2.3, SVG Export Plug-In . SVG Version: 6.00 Build 0)  -->

<svg
   version="1.1"
   id="Layer_1"
   x="0px"
   y="0px"
   viewBox="0 0 1920 1920"
   style="enable-background:new 0 0 1920 1920;"
   xml:space="preserve"
   sodipodi:docname="Bry os2.svg"
   inkscape:version="1.3 (0e150ed, 2023-07-21)"
   xmlns:inkscape="http://www.inkscape.org/namespaces/inkscape"
   xmlns:sodipodi="http://sodipodi.sourceforge.net/DTD/sodipodi-0.dtd"
   xmlns="http://www.w3.org/2000/svg"
   xmlns:svg="http://www.w3.org/2000/svg"><defs
   id="defs18" /><sodipodi:namedview
   id="namedview18"
   pagecolor="#ffffff"
   bordercolor="#000000"
   borderopacity="0.25"
   inkscape:showpageshadow="2"
   inkscape:pageopacity="0.0"
   inkscape:pagecheckerboard="0"
   inkscape:deskcolor="#d1d1d1"
   inkscape:zoom="0.11328125"
   inkscape:cx="957.7931"
   inkscape:cy="1138.7586"
   inkscape:window-width="1440"
   inkscape:window-height="1013"
   inkscape:window-x="242"
   inkscape:window-y="25"
   inkscape:window-maximized="0"
   inkscape:current-layer="Layer_1" />&#10;<style
   type="text/css"
   id="style1">&#10;	.st0{fill:#FEFEFE;}&#10;	.st1{fill:url(#SVGID_1_);}&#10;	.st2{fill:#FFFFFF;}&#10;	.st3{fill:#000FF5;}&#10;	.st4{opacity:0.25;fill:url(#s25_2_);enable-background:new    ;}&#10;	.st5{opacity:0.4;fill:url(#p40_1_);enable-background:new    ;}&#10;</style>&#10;<path
   class="st0"
   d="M0,425.1V960h1920V413.3C1920,185.1,1734.9,0,1506.7,0H425.1C190.3,0,0,190.3,0,425.1z"
   id="path1" />&#10;<linearGradient
   id="SVGID_1_"
   gradientUnits="userSpaceOnUse"
   x1="30.9713"
   y1="1591.1757"
   x2="1911.9041"
   y2="1205.8293">&#10;	<stop
   offset="0"
   style="stop-color:#000b5b;stop-opacity:1;"
   id="stop1" />&#10;	<stop
   offset="1"
   style="stop-color:#20E9FF"
   id="stop2" />&#10;</linearGradient>&#10;<path
   class="st1"
   d="M0,960v533.7C0,1729.1,190.9,1920,426.3,1920h1067.8c235.2,0,425.8-190.6,425.8-425.8V960H0z"
   id="path2" />&#10;&#10;&#10;<linearGradient
   id="s25_2_"
   gradientUnits="userSpaceOnUse"
   x1="965.4885"
   y1="992.9046"
   x2="956.2626"
   y2="728.7285"
   gradientTransform="matrix(1 0 0 1 0 -492)">&#10;	<stop
   offset="0"
   style="stop-color:#FFFFFF"
   id="stop3" />&#10;	<stop
   offset="0.1203"
   style="stop-color:#FFFFFF;stop-opacity:0.8347"
   id="stop4" />&#10;	<stop
   offset="0.2693"
   style="stop-color:#FFFFFF;stop-opacity:0.6576"
   id="stop5" />&#10;	<stop
   offset="0.4195"
   style="stop-color:#FFFFFF;stop-opacity:0.5107"
   id="stop6" />&#10;	<stop
   offset="0.5684"
   style="stop-color:#FFFFFF;stop-opacity:0.3965"
   id="stop7" />&#10;	<stop
   offset="0.7156"
   style="stop-color:#FFFFFF;stop-opacity:0.3152"
   id="stop8" />&#10;	<stop
   offset="0.8603"
   style="stop-color:#FFFFFF;stop-opacity:0.2664"
   id="stop9" />&#10;	<stop
   offset="1"
   style="stop-color:#FFFFFF;stop-opacity:0.25"
   id="stop10" />&#10;</linearGradient>&#10;&#10;<linearGradient
   id="p40_1_"
   gradientUnits="userSpaceOnUse"
   x1="960.7747"
   y1="2060.6418"
   x2="940.7126"
   y2="1486.1401"
   gradientTransform="matrix(0.9995 -3.158637e-02 3.158637e-02 0.9995 -48.6484 -543.6279)">&#10;	<stop
   offset="0"
   style="stop-color:#FFFFFF"
   id="stop11" />&#10;	<stop
   offset="0.1203"
   style="stop-color:#FFFFFF;stop-opacity:0.8347"
   id="stop12" />&#10;	<stop
   offset="0.2693"
   style="stop-color:#FFFFFF;stop-opacity:0.6576"
   id="stop13" />&#10;	<stop
   offset="0.4195"
   style="stop-color:#FFFFFF;stop-opacity:0.5107"
   id="stop14" />&#10;	<stop
   offset="0.5684"
   style="stop-color:#FFFFFF;stop-opacity:0.3965"
   id="stop15" />&#10;	<stop
   offset="0.7156"
   style="stop-color:#FFFFFF;stop-opacity:0.3152"
   id="stop16" />&#10;	<stop
   offset="0.8603"
   style="stop-color:#FFFFFF;stop-opacity:0.2664"
   id="stop17" />&#10;	<stop
   offset="1"
   style="stop-color:#FFFFFF;stop-opacity:0.25"
   id="stop18" />&#10;</linearGradient>&#10;<path
   id="p40_2_"
   class="st5"
   d="M10.8,1589.6c-0.8-4.2-4.8-21.6,6.3-38.7c7-10.9,16.3-16.3,21-18.5c0,0,1.3-0.3,4-0.6  c123.1-11.6,1850.4-171.7,1850.4-171.7c17.4-0.8,28.6-26.2,27.5-56.4l0-301.6v-42c-636.7,10.1-1283.3-10.1-1920,0  c0,76.9,0,139.5,0,183c0,43.4,0.1,86.8,0.1,130.2c0,47.2,0.2,94.4-0.1,141.6c0,0,0.5,17.3,0.1,46.5c-0.7,51.9,1.2,64.6,1.9,73  C3.1,1547.8,6.1,1566.4,10.8,1589.6z" />&#10;<g
   transform="matrix(0.11110713,0,0,-0.11110713,434.66114,884.99448)"
   fill="#000000"
   stroke="none"
   id="g3"
   style="fill:#0a5290;fill-opacity:1"><path
     d="m 1220,6179 c -218,-19 -448,-73 -605,-142 l -80,-36 V 4178 c 0,-1719 1,-1828 18,-1908 23,-110 91,-249 157,-322 204,-228 694,-373 1260,-372 243,1 361,16 542,68 653,190 1067,782 1068,1530 1,774 -489,1405 -1199,1547 -282,56 -591,25 -817,-81 l -84,-39 v 795 794 l -82,-1 c -46,-1 -126,-5 -178,-10 z m 960,-2288 c 157,-49 288,-166 364,-323 69,-146 81,-203 81,-413 0,-210 -12,-267 -82,-414 -82,-172 -240,-298 -419,-336 -147,-31 -367,-13 -482,40 -67,31 -106,65 -135,120 -22,39 -22,49 -25,573 -2,357 1,546 8,572 12,45 56,100 103,129 117,72 433,100 587,52 z"
     id="path1-7"
     style="fill:#0a5290;fill-opacity:1" /><path
     d="m 5330,4743 c -200,-15 -491,-75 -660,-136 -365,-132 -522,-313 -560,-647 -6,-51 -10,-552 -10,-1237 V 1570 h 68 c 268,1 601,63 809,153 l 73,31 v 932 c 0,1036 -2,998 67,1069 44,45 77,62 171,86 112,29 286,35 461,15 79,-9 152,-16 161,-16 33,0 100,202 140,420 23,123 39,403 24,413 -17,10 -269,56 -366,67 -90,9 -274,11 -378,3 z"
     id="path2-0"
     style="fill:#0a5290;fill-opacity:1" /><path
     d="m 6935,4743 c -113,-7 -304,-37 -411,-64 -117,-29 -324,-105 -324,-118 0,-4 281,-645 624,-1425 l 624,-1418 -39,-95 c -130,-311 -221,-425 -373,-469 -47,-13 -90,-16 -200,-13 l -141,4 -42,-125 c -65,-193 -103,-417 -103,-605 0,-67 2,-73 23,-78 194,-47 601,-57 770,-19 380,84 602,305 832,827 42,94 931,2377 1326,3402 7,20 2,25 -47,47 -191,87 -479,145 -748,149 l -128,2 -330,-925 c -181,-509 -333,-928 -337,-933 -4,-4 -178,414 -386,928 l -379,935 -80,-2 c -45,-1 -103,-3 -131,-5 z"
     id="path3"
     style="fill:#0a5290;fill-opacity:1" /></g><path
   style="fill:#ffffff;stroke-width:2.2694"
   d="m 737.77442,1702.2835 c -69.60194,-5.1092 -133.23026,-37.897 -175.23638,-90.2994 -26.72035,-33.3332 -43.77355,-72.7247 -50.56196,-116.7933 -2.72669,-17.7015 -2.72669,-54.8998 0,-72.6013 13.40201,-87.0019 68.5079,-157.1087 148.82254,-189.3356 31.6825,-12.7128 59.87433,-17.9054 96.96766,-17.8602 24.98721,0.032 38.93003,1.5825 60.50077,6.7351 91.56508,21.8719 161.97209,93.3883 180.79455,183.6431 4.2141,20.2073 5.3236,31.2765 5.3236,53.1183 0,21.8417 -1.1095,32.911 -5.3236,53.1182 -14.88266,71.3631 -63.04927,132.9205 -129.23705,165.1662 -40.02429,19.4992 -86.94089,28.4203 -132.05013,25.1089 z m 37.87886,-56.1231 c 71.93229,-7.4532 131.56474,-55.5821 154.60135,-124.7777 10.45885,-31.4149 12.93827,-63.3806 7.41816,-95.6366 -10.19454,-59.5707 -45.72283,-108.595 -98.02343,-135.2595 -81.98797,-41.7998 -183.07034,-15.3989 -233.85922,61.08 -33.10307,49.8471 -41.09634,112.5049 -21.73841,170.4025 27.2417,81.4781 106.71,132.9873 191.60155,124.1913 z m 428.76862,55.6939 c -47.4948,-4.8779 -95.6242,-26.2862 -126.3472,-56.1999 -6.5599,-6.3874 -8.9716,-9.5182 -9.9985,-12.9806 -2.6453,-8.9186 1.6426,-17.4188 15.5583,-30.8429 13.2363,-12.7685 18.8954,-12.3894 36.8058,2.4659 39.9023,33.0959 78.0354,46.4802 119.5625,41.9651 45.3489,-4.9308 76.9575,-26.9451 85.4746,-59.5304 2.213,-8.4665 2.2351,-26.3586 0.045,-35.6436 -5.8953,-24.9842 -26.5158,-45.1728 -60.1657,-58.906 -15.0167,-6.1285 -24.9223,-9.0673 -50.4122,-14.9561 -38.9465,-8.9976 -65.2961,-19.0527 -87.4587,-33.3742 -30.7028,-19.8402 -50.0627,-47.4973 -55.6734,-79.5335 -3.4598,-19.7564 -1.2832,-45.9991 5.3342,-64.3089 16.6869,-46.1708 60.0709,-76.8542 118.3258,-83.6859 39.6168,-4.6461 81.6283,2.1628 116.3489,18.8568 19.9339,9.5845 40.8571,24.2322 45.2004,31.6435 3.3462,5.7101 3.4259,12.2702 0.225,18.5396 -3.5921,7.0348 -15.3942,20.8007 -20.2968,23.6738 -8.7468,5.126 -14.9551,3.2412 -33.0953,-10.0474 -11.8176,-8.6572 -26.4632,-16.4914 -39.1054,-20.9183 -42.4431,-14.8626 -90.2997,-6.7134 -114.5702,19.5095 -10.776,11.6428 -15.7391,24.5894 -15.7118,40.9852 0.033,17.6915 5.4335,31.4657 17.4272,44.4198 17.0013,18.3632 43.2135,30.5831 90.792,42.3268 50.3015,12.4159 81.2657,25.9771 105.911,46.3855 26.059,21.5792 39.8148,49.1019 42.5583,85.1513 6.0697,79.7585 -49.5852,136.5978 -142.015,145.0373 -13.7408,1.2547 -32.3175,1.2412 -44.7182,-0.032 z"
   id="path1-4" /></svg>
