<?xml version="1.0" standalone="no"?>
<!DOCTYPE svg PUBLIC "-//W3C//DTD SVG 20010904//EN"
 "http://www.w3.org/TR/2001/REC-SVG-20010904/DTD/svg10.dtd">
<svg version="1.0" xmlns="http://www.w3.org/2000/svg"
 width="700.000000pt" height="700.000000pt" viewBox="0 0 700.000000 700.000000"
 preserveAspectRatio="xMidYMid meet">
<metadata>
Created by potrace 1.14, written by Peter Selinger 2001-2017
</metadata>
<g transform="translate(0.000000,700.000000) scale(0.100000,-0.100000)"
fill="#000000" stroke="none">
<path d="M1409 6996 c-2 -2 -31 -7 -64 -10 -147 -16 -369 -86 -513 -163 -426
-226 -730 -640 -807 -1098 -3 -16 -8 -43 -12 -60 -11 -46 -13 -4217 -2 -4305
13 -99 53 -260 89 -353 208 -539 676 -911 1255 -995 28 -4 997 -7 2155 -7
2018 0 2109 1 2205 19 253 48 459 137 660 286 253 189 441 448 541 747 20 58
38 115 40 127 41 201 39 74 39 2331 0 1172 -4 2154 -8 2184 -36 232 -120 450
-244 635 -62 91 -87 121 -203 236 -217 217 -496 358 -825 416 -41 8 -4298 17
-4306 10z"/>
</g>
</svg>
