<svg width="42" height="40" viewBox="0 0 42 40" fill="none" xmlns="http://www.w3.org/2000/svg">
<path fill-rule="evenodd" clip-rule="evenodd" d="M41.498 12.5973C41.5652 6.35434 36.5748 1.2394 30.3504 1.17229C26.6184 1.13299 23.1871 2.93928 21.0693 5.91398C19.0156 2.89399 15.6229 1.01494 11.8904 0.975636C5.66678 0.910021 0.568151 5.91843 0.500895 12.162C0.433244 18.4275 4.20319 24.8175 10.5092 31.0161C12.6833 33.153 15.0108 35.1145 17.3385 36.8583C18.1534 37.4688 18.9104 38.0087 19.5903 38.4727C19.8288 38.6354 20.0408 38.7772 20.2238 38.8972C20.3345 38.9698 20.4114 39.0193 20.4522 39.0451L20.7132 39.2101L20.9776 39.0507C21.0196 39.0254 21.0987 38.9768 21.2125 38.9056C21.4007 38.7878 21.6187 38.6486 21.8639 38.4887C22.5631 38.0327 23.3416 37.5015 24.1796 36.9002C26.5734 35.1823 28.9671 33.2448 31.203 31.1273C37.5733 25.0942 41.4314 18.8237 41.498 12.5973ZM30.3084 5.02222C34.3944 5.06626 37.6852 8.446 37.6423 12.5569C37.5868 17.6434 34.0955 23.0762 28.5698 28.3145C26.0486 30.7042 23.3411 32.8249 20.7617 34.5891C18.2223 32.7708 15.56 30.5917 13.0911 28.1495C7.67861 22.7958 4.30363 17.2886 4.35797 12.2026C4.40215 8.09047 7.76377 4.78153 11.8498 4.82557C14.4678 4.85361 16.8232 6.23257 18.1575 8.52045L20.5676 12.6516L20.9891 13.3741L23.923 8.58236C25.3072 6.32346 27.6923 4.99419 30.3084 5.02222Z" fill="#F0F0F0"/>
</svg>
