<?xml version="1.0" encoding="UTF-8" standalone="no"?>
<!-- Generator: Adobe Illustrator 19.0.0, SVG Export Plug-In . SVG Version: 6.00 Build 0)  -->

<svg
   version="1.1"
   id="Layer_1"
   x="0px"
   y="0px"
   viewBox="19 0.8 101.3 63.2"
   style="enable-background:new 19 0.8 101.3 63.2;"
   xml:space="preserve"
   sodipodi:docname="nuvoloso.svg"
   inkscape:version="1.2.2 (b0a8486, 2022-12-01)"
   xmlns:inkscape="http://www.inkscape.org/namespaces/inkscape"
   xmlns:sodipodi="http://sodipodi.sourceforge.net/DTD/sodipodi-0.dtd"
   xmlns:xlink="http://www.w3.org/1999/xlink"
   xmlns="http://www.w3.org/2000/svg"
   xmlns:svg="http://www.w3.org/2000/svg"><defs
   id="defs35"><linearGradient
     id="solGradPN"
     x1="3.6443449"
     x2="236.88242"
     y1="107.70111"
     y2="96.039208"
     gradientTransform="scale(2.7439774,0.36443449)"
     gradientUnits="userSpaceOnUse"><stop
       offset="0%"
       stop-color="#fbc224"
       id="stop195" /><stop
       offset="14%"
       stop-color="#fbc224"
       id="stop197" /><stop
       offset="42%"
       stop-color="#FA9C2E"
       id="stop199" /><stop
       offset="58%"
       stop-color="#FA9C2E"
       id="stop201" /><stop
       offset="86%"
       stop-color="#fbc224"
       id="stop203" /><stop
       offset="100%"
       stop-color="#fbc224"
       id="stop205" /></linearGradient><linearGradient
     id="nuvGradPN"
     gradientUnits="userSpaceOnUse"
     x1="21.4624"
     y1="61.6909"
     x2="137.5488"
     y2="61.6909"><stop
       offset="0"
       style="stop-color:#FCFBF9;stop-opacity:1"
       id="stop208" /><stop
       offset="1"
       style="stop-color:#FFFEFD;stop-opacity:0.6"
       id="stop210" /></linearGradient><clipPath
     id="solDiscoPN"><circle
       cx="81.3"
       cy="77.3"
       r="42.2"
       id="circle213" /></clipPath><clipPath
     id="nuvOmbraPN"><path
       class="nuvMoPN"
       d="M121.25,93.199c-9.937,0-51.114,0-52.305,0c-1.633,0-4.904-1.974-4.904-6.168c0-7.932,8.968-6.977,8.968-6.977s-1.802-5.871,3.25-10.679c6.507-6.193,15.438-1.643,15.438-1.643s4.343-11.142,16.254-10.679c14.107,0.547,15.439,15.608,15.439,15.608s9.986,0.289,10.565,9.037c0.381,5.747-3.25,10.131-10.565,11.5c0,0-0.712,0-1.975,0z M-40-40L-40,200L200,200L200-40Z"
       id="path216" /></clipPath><linearGradient
     inkscape:collect="always"
     xlink:href="#nuvGradPN"
     id="linearGradient846"
     gradientUnits="userSpaceOnUse"
     x1="21.4624"
     y1="61.6909"
     x2="137.5488"
     y2="61.6909" /><linearGradient
     inkscape:collect="always"
     xlink:href="#nuvGradPN"
     id="linearGradient848"
     gradientUnits="userSpaceOnUse"
     x1="21.4624"
     y1="61.6909"
     x2="137.5488"
     y2="61.6909" /></defs><sodipodi:namedview
   id="namedview33"
   pagecolor="#ffffff"
   bordercolor="#000000"
   borderopacity="0.25"
   inkscape:showpageshadow="2"
   inkscape:pageopacity="0.0"
   inkscape:pagecheckerboard="0"
   inkscape:deskcolor="#d1d1d1"
   showgrid="false"
   inkscape:window-width="1427"
   inkscape:window-height="1014"
   inkscape:window-x="292"
   inkscape:window-y="26"
   inkscape:window-maximized="0"
   inkscape:current-layer="Layer_1" />
<style
   type="text/css"
   id="style2">
	.st0{fill:#EAD88C;}
	.st1{fill:none;stroke:#000000;stroke-width:3;stroke-miterlimit:10;}
	.st2{fill:none;}
	.st3{fill:#CAE3F6;}
	.st4{fill:none;stroke:#0A0B0B;stroke-width:4;stroke-miterlimit:10;}
</style>

<style
   id="style239">
    .solDiscMoPN {
      animation-name: solDiscMovesPN;
      animation-duration: 4s;
      animation-iteration-count: infinite;
    }
    @keyframes solDiscMovesPN {
      0%   { transform: translate(28px); }
      100% { transform: translate(-516.5px); }
    }
    .ghieraPN {display: inline; fill: none; stroke: #ED6E30; stroke-width: 2.5; stroke-miterlimit: 10;}
    .ghieraMoPN {
      animation-name: ghieraMovesPN;
      animation-duration: 1s;
      animation-iteration-count: infinite;
    }
    @keyframes ghieraMovesPN {
      0%   { opacity: 0; }
      10%   { opacity: 0; }
      45%   { opacity: 1; }
      100% { opacity: 0; }
    }
    .nuvMoPN {
      animation-name: nuvMovesPN;
      animation-duration: 1320ms;
      animation-iteration-count: infinite;
    }
    @keyframes nuvMovesPN {
      0%   { transform: translate(-1px, 0); }
      50%  { transform: translate(5px, 0); }
      100% { transform: translate(-1px, 0); }
    }
  </style><g
   id="g270"
   transform="matrix(0.53421351,0,0,0.53421351,28.592738,-8.7529775)"
   style="display:none"><g
     id="Sole"
     clip-path="url(#nuvOmbraPN)"><g
       clip-path="url(#solDiscoPN)"
       id="g223"><rect
         class="solDiscMoPN"
         x="10"
         y="35"
         width="640"
         height="85"
         fill="url(#solGradPN)"
         id="rect221"
         style="fill:url(#solGradPN)" /></g><g
       class="ghieraMoPN ghieraPN"
       id="g231"><path
         opacity="0.8"
         d="m 127.406,77.329 c 0,-25.481 -20.662,-46.14 -46.139,-46.14 -25.483,0 -46.143,20.658 -46.143,46.14 0,25.482 20.66,46.138 46.143,46.138 25.477,0 46.139,-20.656 46.139,-46.138 z"
         id="path225" /><path
         opacity="0.3"
         d="m 132.021,77.329 c 0,-28.03 -22.729,-50.754 -50.753,-50.754 -28.031,0 -50.757,22.724 -50.757,50.754 0,28.029 22.726,50.751 50.757,50.751 28.024,0 50.753,-22.723 50.753,-50.751 z"
         id="path227" /><path
         opacity="0.05"
         d="m 137.097,77.329 c 0,-30.834 -25.002,-55.829 -55.829,-55.829 -30.834,0 -55.832,24.995 -55.832,55.829 0,30.831 24.998,55.825 55.832,55.825 30.827,0 55.829,-24.994 55.829,-55.825 z"
         id="path229" /></g></g><g
     id="Nuvola"
     class="nuvMoPN"><path
       fill="url(#nuvGradPN)"
       d="m 121.25,93.199 c -9.937,0 -51.114,0 -52.305,0 -1.633,0 -4.904,-1.974 -4.904,-6.168 0,-7.932 8.968,-6.977 8.968,-6.977 0,0 -1.802,-5.871 3.25,-10.679 6.507,-6.193 15.438,-1.643 15.438,-1.643 0,0 4.343,-11.142 16.254,-10.679 14.107,0.547 15.439,15.608 15.439,15.608 0,0 9.986,0.289 10.565,9.037 0.381,5.747 -3.25,10.131 -10.565,11.5 0,0 -0.712,0 -1.975,0"
       id="path234"
       style="fill:url(#nuvGradPN)" /><path
       fill="none"
       stroke="#d3d1cf"
       stroke-width="3"
       stroke-miterlimit="10"
       d="m 121.25,93.199 c -9.937,0 -51.114,0 -52.305,0 -1.633,0 -4.904,-1.974 -4.904,-6.168 0,-7.932 8.968,-6.977 8.968,-6.977 0,0 -1.802,-5.871 3.25,-10.679 6.507,-6.193 15.438,-1.643 15.438,-1.643 0,0 4.343,-11.142 16.254,-10.679 14.107,0.547 15.439,15.608 15.439,15.608 0,0 9.986,0.289 10.565,9.037 0.381,5.747 -3.25,10.131 -10.565,11.5 0,0 -0.712,0 -1.975,0"
       id="path236" /></g></g><style
   id="style831">
    .nuvMoC {
      animation-name: nuvMovesC;
      animation-duration: 1320ms;
      animation-iteration-count: infinite;
    }
    @keyframes nuvMovesC {
      0%   { transform: translate(-2px, 0); animation-timing-function: ease-in; }
      52%  { transform: translate(5px, 0); animation-timing-function: ease-out; }
      100% { transform: translate(-2px, 0); animation-timing-function: ease-in; }
    }
    .nuv2MoC {
      animation-name: nuv2MovesC;
      animation-duration: 1320ms;
      animation-iteration-count: infinite;
    }
    @keyframes nuv2MovesC {
      0%   { transform: translate(5px, 0); animation-timing-function: ease-in; }
      52%  { transform: translate(-6px, 0); animation-timing-function: ease-out; }
      100% { transform: translate(5px, 0); animation-timing-function: ease-in; }
    }
 </style><g
   id="g844"
   transform="matrix(0.50957419,0,0,0.52341179,29.307629,-6.3581402)"
   style="display:inline"><g
     id="Nuvola-7"
     class="nuvMoC"><path
       fill="url(#nuvGradC)"
       d="m 124.97,102.699 c 0,0 -88.119,0 -90.368,0 -2.71,0 -8.139,-3.278 -8.139,-10.237 0,-13.166 14.885,-11.579 14.885,-11.579 0,0 -2.991,-9.746 5.396,-17.726 10.799,-10.279 25.625,-2.727 25.625,-2.727 0,0 7.208,-18.492 26.975,-17.725 23.415,0.91 25.627,25.906 25.627,25.906 0,0 16.573,0.48 17.534,14.999 0.631,9.542 -5.396,16.816 -17.535,19.089 z"
       id="path820"
       style="fill:url(#linearGradient846)" /><path
       fill="none"
       stroke="#d3d1cf"
       stroke-width="6"
       stroke-miterlimit="10"
       d="m 124.97,102.699 c 0,0 -88.119,0 -90.368,0 -2.71,0 -8.139,-3.278 -8.139,-10.237 0,-13.166 14.885,-11.579 14.885,-11.579 0,0 -2.991,-9.746 5.396,-17.726 10.799,-10.279 25.625,-2.727 25.625,-2.727 0,0 7.208,-18.492 26.975,-17.725 23.415,0.91 25.627,25.906 25.627,25.906 0,0 16.573,0.48 17.534,14.999 0.631,9.542 -5.396,16.816 -17.535,19.089 z"
       id="path822" /></g><g
     id="g829"
     class="nuv2MoC"><path
       fill="url(#nuvGradC)"
       d="m 86.45,72.033 c 0,0 -60.222,0 -61.759,0 -1.852,0 -5.563,-2.24 -5.563,-6.996 0,-8.997 10.172,-7.914 10.172,-7.914 0,0 -2.044,-6.659 3.688,-12.113 7.38,-7.024 17.512,-1.863 17.512,-1.863 0,0 4.927,-12.638 18.436,-12.114 16.002,0.621 17.514,17.704 17.514,17.704 0,0 11.326,0.328 11.983,10.251 0.432,6.52 -3.686,11.491 -11.983,13.045 z"
       id="path825"
       style="fill:url(#linearGradient848)" /><path
       fill="none"
       stroke="#d3d1cf"
       stroke-width="4"
       stroke-miterlimit="10"
       d="m 86.45,72.033 c 0,0 -60.222,0 -61.759,0 -1.852,0 -5.563,-2.24 -5.563,-6.996 0,-8.997 10.172,-7.914 10.172,-7.914 0,0 -2.044,-6.659 3.688,-12.113 7.38,-7.024 17.512,-1.863 17.512,-1.863 0,0 4.927,-12.638 18.436,-12.114 16.002,0.621 17.514,17.704 17.514,17.704 0,0 11.326,0.328 11.983,10.251 0.432,6.52 -3.686,11.491 -11.983,13.045 z"
       id="path827" /></g></g></svg>
