<?xml version="1.0" encoding="UTF-8" standalone="no"?>
<!-- Generator: Adobe Illustrator 19.0.0, SVG Export Plug-In . SVG Version: 6.00 Build 0)  -->

<svg
   version="1.1"
   id="Layer_1"
   x="0px"
   y="0px"
   viewBox="19 0.8 101.3 63.2"
   style="enable-background:new 19 0.8 101.3 63.2;"
   xml:space="preserve"
   sodipodi:docname="pioggia.svg"
   inkscape:version="1.2.2 (b0a8486, 2022-12-01)"
   xmlns:inkscape="http://www.inkscape.org/namespaces/inkscape"
   xmlns:sodipodi="http://sodipodi.sourceforge.net/DTD/sodipodi-0.dtd"
   xmlns:xlink="http://www.w3.org/1999/xlink"
   xmlns="http://www.w3.org/2000/svg"
   xmlns:svg="http://www.w3.org/2000/svg"><defs
   id="defs35"><linearGradient
     id="solGradPN"
     x1="3.6443449"
     x2="236.88242"
     y1="107.70111"
     y2="96.039208"
     gradientTransform="scale(2.7439774,0.36443449)"
     gradientUnits="userSpaceOnUse"><stop
       offset="0%"
       stop-color="#fbc224"
       id="stop195" /><stop
       offset="14%"
       stop-color="#fbc224"
       id="stop197" /><stop
       offset="42%"
       stop-color="#FA9C2E"
       id="stop199" /><stop
       offset="58%"
       stop-color="#FA9C2E"
       id="stop201" /><stop
       offset="86%"
       stop-color="#fbc224"
       id="stop203" /><stop
       offset="100%"
       stop-color="#fbc224"
       id="stop205" /></linearGradient><linearGradient
     id="nuvGradPN"
     gradientUnits="userSpaceOnUse"
     x1="21.4624"
     y1="61.6909"
     x2="137.5488"
     y2="61.6909"><stop
       offset="0"
       style="stop-color:#FCFBF9;stop-opacity:1"
       id="stop208" /><stop
       offset="1"
       style="stop-color:#FFFEFD;stop-opacity:0.6"
       id="stop210" /></linearGradient><clipPath
     id="solDiscoPN"><circle
       cx="81.3"
       cy="77.3"
       r="42.2"
       id="circle213" /></clipPath><clipPath
     id="nuvOmbraPN"><path
       class="nuvMoPN"
       d="M121.25,93.199c-9.937,0-51.114,0-52.305,0c-1.633,0-4.904-1.974-4.904-6.168c0-7.932,8.968-6.977,8.968-6.977s-1.802-5.871,3.25-10.679c6.507-6.193,15.438-1.643,15.438-1.643s4.343-11.142,16.254-10.679c14.107,0.547,15.439,15.608,15.439,15.608s9.986,0.289,10.565,9.037c0.381,5.747-3.25,10.131-10.565,11.5c0,0-0.712,0-1.975,0z M-40-40L-40,200L200,200L200-40Z"
       id="path216" /></clipPath><linearGradient
     id="solGradN"
     x1="3.6443449"
     x2="236.88242"
     y1="107.70111"
     y2="96.039208"
     gradientTransform="scale(2.7439774,0.36443449)"
     gradientUnits="userSpaceOnUse"><stop
       offset="0%"
       stop-color="#fbc224"
       id="stop1051" /><stop
       offset="14%"
       stop-color="#fbc224"
       id="stop1053" /><stop
       offset="42%"
       stop-color="#FA9C2E"
       id="stop1055" /><stop
       offset="58%"
       stop-color="#FA9C2E"
       id="stop1057" /><stop
       offset="86%"
       stop-color="#fbc224"
       id="stop1059" /><stop
       offset="100%"
       stop-color="#fbc224"
       id="stop1061" /></linearGradient><clipPath
     id="solDiscoN"><circle
       cx="81.3"
       cy="77.3"
       r="42.2"
       id="circle1069" /></clipPath><clipPath
     id="nuvOmbraN"><path
       class="nuvMoN"
       d="M123.034,73.998c4.838,0.928,13.771,4.067,14.47,14.613c0.632,9.541-5.395,16.814-17.534,19.088c0,0-88.119,0-90.368,0c-2.71,0-8.139-3.278-8.139-10.237c0-13.165,14.885-11.579,14.885-11.579s-2.991-9.745,5.396-17.725c10.799-10.279,25.625-2.728,25.625-2.728s7.208-18.492,26.975-17.725c23.415,0.91,25.627,25.906,25.627,25.906S121.211,73.648,123.034,73.998Z M-20-20L-20,108L200,108L200-20Z"
       id="path1072" /></clipPath><clipPath
     id="solDiscoPN-0"><circle
       cx="81.3"
       cy="77.3"
       r="42.2"
       id="circle213-9" /></clipPath><clipPath
     id="nuvOmbraPN-3"><path
       class="nuvMoPN"
       d="M121.25,93.199c-9.937,0-51.114,0-52.305,0c-1.633,0-4.904-1.974-4.904-6.168c0-7.932,8.968-6.977,8.968-6.977s-1.802-5.871,3.25-10.679c6.507-6.193,15.438-1.643,15.438-1.643s4.343-11.142,16.254-10.679c14.107,0.547,15.439,15.608,15.439,15.608s9.986,0.289,10.565,9.037c0.381,5.747-3.25,10.131-10.565,11.5c0,0-0.712,0-1.975,0z M-40-40L-40,200L200,200L200-40Z"
       id="path216-7" /></clipPath><clipPath
     id="solDiscoS"><circle
       cx="81.3"
       cy="77.3"
       r="42.2"
       id="circle483" /></clipPath><symbol
     id="drop"><path
       fill="#4990CD"
       stroke="#FFFFFF"
       stroke-width="2"
       stroke-miterlimit="10"
       d="M90.599,108.347c-2.736,5.944-8.836,8.983-13.626,6.779c-4.789-2.202-6.455-8.81-3.721-14.755 c2.735-5.946,19.675-19.939,19.675-19.939S93.332,102.397,90.599,108.347z"
       id="path1739" /></symbol><symbol
     id="drop-5"><path
       fill="#4990CD"
       stroke="#FFFFFF"
       stroke-width="2"
       stroke-miterlimit="10"
       d="M90.599,108.347c-2.736,5.944-8.836,8.983-13.626,6.779c-4.789-2.202-6.455-8.81-3.721-14.755 c2.735-5.946,19.675-19.939,19.675-19.939S93.332,102.397,90.599,108.347z"
       id="path2082" /></symbol></defs><sodipodi:namedview
   id="namedview33"
   pagecolor="#ffffff"
   bordercolor="#000000"
   borderopacity="0.25"
   inkscape:showpageshadow="2"
   inkscape:pageopacity="0.0"
   inkscape:pagecheckerboard="0"
   inkscape:deskcolor="#d1d1d1"
   showgrid="false"
   inkscape:window-width="1427"
   inkscape:window-height="1014"
   inkscape:window-x="146"
   inkscape:window-y="26"
   inkscape:window-maximized="0"
   inkscape:current-layer="Layer_1" />
<style
   type="text/css"
   id="style2">
	.st0{fill:#EAD88C;}
	.st1{fill:none;stroke:#000000;stroke-width:3;stroke-miterlimit:10;}
	.st2{fill:none;}
	.st3{fill:#CAE3F6;}
	.st4{fill:none;stroke:#0A0B0B;stroke-width:4;stroke-miterlimit:10;}
</style>

<style
   id="style239">
    .solDiscMoPN {
      animation-name: solDiscMovesPN;
      animation-duration: 4s;
      animation-iteration-count: infinite;
    }
    @keyframes solDiscMovesPN {
      0%   { transform: translate(28px); }
      100% { transform: translate(-516.5px); }
    }
    .ghieraPN {display: inline; fill: none; stroke: #ED6E30; stroke-width: 2.5; stroke-miterlimit: 10;}
    .ghieraMoPN {
      animation-name: ghieraMovesPN;
      animation-duration: 1s;
      animation-iteration-count: infinite;
    }
    @keyframes ghieraMovesPN {
      0%   { opacity: 0; }
      10%   { opacity: 0; }
      45%   { opacity: 1; }
      100% { opacity: 0; }
    }
    .nuvMoPN {
      animation-name: nuvMovesPN;
      animation-duration: 1320ms;
      animation-iteration-count: infinite;
    }
    @keyframes nuvMovesPN {
      0%   { transform: translate(-1px, 0); }
      50%  { transform: translate(5px, 0); }
      100% { transform: translate(-1px, 0); }
    }
  </style><style
   id="style831">
    .nuvMoC {
      animation-name: nuvMovesC;
      animation-duration: 1320ms;
      animation-iteration-count: infinite;
    }
    @keyframes nuvMovesC {
      0%   { transform: translate(-2px, 0); animation-timing-function: ease-in; }
      52%  { transform: translate(5px, 0); animation-timing-function: ease-out; }
      100% { transform: translate(-2px, 0); animation-timing-function: ease-in; }
    }
    .nuv2MoC {
      animation-name: nuv2MovesC;
      animation-duration: 1320ms;
      animation-iteration-count: infinite;
    }
    @keyframes nuv2MovesC {
      0%   { transform: translate(5px, 0); animation-timing-function: ease-in; }
      52%  { transform: translate(-6px, 0); animation-timing-function: ease-out; }
      100% { transform: translate(5px, 0); animation-timing-function: ease-in; }
    }
 </style><style
   id="style1095">
    .solDiscMoN {
      animation-name: solDiscMovesN;
      animation-duration: 4s;
      animation-iteration-count: infinite;
    }
    @keyframes solDiscMovesN {
      0%   { transform: translate(32px); }
      100% { transform: translate(-516.5px); }
    }
    .ghieraN {display: inline; fill: none; stroke: #ED6E30; stroke-width: 2.5; stroke-miterlimit: 10;}
    .ghieraMoN {
      animation-name: ghieraMovesN;
      animation-duration: 1s;
      animation-iteration-count: infinite;
    }
    @keyframes ghieraMovesN {
      0%   { opacity: 0; }
      10%   { opacity: 0; }
      45%   { opacity: 1; }
      100% { opacity: 0; }
    }
    .nuvMoN {
      animation-name: nuvMovesN;
      animation-duration: 1320ms;
      animation-iteration-count: infinite;
    }
    @keyframes nuvMovesN {
      0%   { transform: translate(-2px, 0); }
      52%  { transform: translate(5px, 0); }
      100% { transform: translate(-2px, 0); }
    }
  </style><style
   type="text/css"
   id="style2-7">
	.st0{fill:#EAD88C;}
	.st1{fill:none;stroke:#000000;stroke-width:3;stroke-miterlimit:10;}
	.st2{fill:none;}
	.st3{fill:#CAE3F6;}
	.st4{fill:none;stroke:#0A0B0B;stroke-width:4;stroke-miterlimit:10;}
</style><style
   id="style239-2">
    .solDiscMoPN {
      animation-name: solDiscMovesPN;
      animation-duration: 4s;
      animation-iteration-count: infinite;
    }
    @keyframes solDiscMovesPN {
      0%   { transform: translate(28px); }
      100% { transform: translate(-516.5px); }
    }
    .ghieraPN {display: inline; fill: none; stroke: #ED6E30; stroke-width: 2.5; stroke-miterlimit: 10;}
    .ghieraMoPN {
      animation-name: ghieraMovesPN;
      animation-duration: 1s;
      animation-iteration-count: infinite;
    }
    @keyframes ghieraMovesPN {
      0%   { opacity: 0; }
      10%   { opacity: 0; }
      45%   { opacity: 1; }
      100% { opacity: 0; }
    }
    .nuvMoPN {
      animation-name: nuvMovesPN;
      animation-duration: 1320ms;
      animation-iteration-count: infinite;
    }
    @keyframes nuvMovesPN {
      0%   { transform: translate(-1px, 0); }
      50%  { transform: translate(5px, 0); }
      100% { transform: translate(-1px, 0); }
    }
  </style><style
   id="style500">
    .solDiscMoS {
      animation-name: solDiscMovesS;
      animation-duration: 4s;
      animation-iteration-count: infinite;
    }
    @keyframes solDiscMovesS {
      0%   { transform: translate(28px); }
      100% { transform: translate(-516.5px); }
    }
    .ghieraS {display: inline; fill: none; stroke: #ED6E30; stroke-width: 2.5; stroke-miterlimit: 10;}
    .ghieraMoS {
      animation-name: ghieraMovesS;
      animation-duration: 1s;
      animation-iteration-count: infinite;
    }
    @keyframes ghieraMovesS {
      0%   { opacity: 0; }
      10%   { opacity: 0; }
      45%   { opacity: 1; }
      100% { opacity: 0; }
    }
  </style><style
   id="style1759">
    .nuvMoG2 {
      animation-name: nuvMovesG2;
      animation-duration: 1320ms;
      animation-iteration-count: infinite;
    }
    @keyframes nuvMovesG2 {
      0%   { transform: translate(-2px, 0); animation-timing-function: ease-in; }
      52%  { transform: translate(5px, 0); animation-timing-function: ease-out; }
      100% { transform: translate(-2px, 0); animation-timing-function: ease-in; }
    }
    .drop1MoG2 {
      animation-name: drop1MovesG2;
      animation-duration: 1s;
      animation-iteration-count: infinite;
    }
    @keyframes drop1MovesG2 {
      0%  { transform: translate(0px,0px); }
      30%  { transform: translate(-3.4px,9px); }
      80%  { transform: translate(2.5px,-6px); }
      100%  { transform: translate(0px,0px); }
    }
    .drop1AphG2 {
      animation-name: drop1AlphaG2;
      animation-duration: 1s;
      animation-iteration-count: infinite;
    }
    @keyframes drop1AlphaG2 {
      0%   { opacity: 1; }
      28%  { opacity: 1; }
      30%  { opacity: 0; }
      80%  { opacity: 0; }
      82%  { opacity: 1; }
      100% { opacity: 1; }
    }
    .drop2MoG2 {
      animation-name: drop2MovesG2;
      animation-duration: 1s;
      animation-iteration-count: infinite;
    }
    @keyframes drop2MovesG2 {
      0%   { transform: translate(0px,0px); }
      40%  { transform: translate(-6.5px,14.76px); }
      100% { transform: translate(0px,0px); }
    }
    .drop2AphG2 {
      animation-name: drop2AlphaG2;
      animation-duration: 1s;
      animation-iteration-count: infinite;
    }
    @keyframes drop2AlphaG2 {
      0%   { opacity: 1; }
      38%  { opacity: 1; }
      40%  { opacity: 0; }
      98%  { opacity: 0; }
      100% { opacity: 1; }
    }
  </style><style
   id="style2102">
    .nuvMoG2 {
      animation-name: nuvMovesG2;
      animation-duration: 1320ms;
      animation-iteration-count: infinite;
    }
    @keyframes nuvMovesG2 {
      0%   { transform: translate(-2px, 0); animation-timing-function: ease-in; }
      52%  { transform: translate(5px, 0); animation-timing-function: ease-out; }
      100% { transform: translate(-2px, 0); animation-timing-function: ease-in; }
    }
    .drop1MoG2 {
      animation-name: drop1MovesG2;
      animation-duration: 1s;
      animation-iteration-count: infinite;
    }
    @keyframes drop1MovesG2 {
      0%  { transform: translate(0px,0px); }
      30%  { transform: translate(-3.4px,9px); }
      80%  { transform: translate(2.5px,-6px); }
      100%  { transform: translate(0px,0px); }
    }
    .drop1AphG2 {
      animation-name: drop1AlphaG2;
      animation-duration: 1s;
      animation-iteration-count: infinite;
    }
    @keyframes drop1AlphaG2 {
      0%   { opacity: 1; }
      28%  { opacity: 1; }
      30%  { opacity: 0; }
      80%  { opacity: 0; }
      82%  { opacity: 1; }
      100% { opacity: 1; }
    }
    .drop2MoG2 {
      animation-name: drop2MovesG2;
      animation-duration: 1s;
      animation-iteration-count: infinite;
    }
    @keyframes drop2MovesG2 {
      0%   { transform: translate(0px,0px); }
      40%  { transform: translate(-6.5px,14.76px); }
      100% { transform: translate(0px,0px); }
    }
    .drop2AphG2 {
      animation-name: drop2AlphaG2;
      animation-duration: 1s;
      animation-iteration-count: infinite;
    }
    @keyframes drop2AlphaG2 {
      0%   { opacity: 1; }
      38%  { opacity: 1; }
      40%  { opacity: 0; }
      98%  { opacity: 0; }
      100% { opacity: 1; }
    }
  </style><g
   id="g2120"
   transform="matrix(0.56281679,0,0,0.56281679,28.408098,-8.3790799)"><g
     id="Nuvola"
     class="nuvMoG2"><path
       fill="url(#nuvGradG2)"
       d="m 119.97,91.699 c 0,0 -88.119,0 -90.368,0 -2.71,0 -8.139,-3.278 -8.139,-10.237 0,-13.166 14.885,-11.579 14.885,-11.579 0,0 -2.991,-9.746 5.396,-17.726 10.799,-10.279 25.625,-2.727 25.625,-2.727 0,0 7.208,-18.492 26.975,-17.725 23.415,0.91 25.627,25.906 25.627,25.906 0,0 16.573,0.48 17.534,14.999 0.631,9.542 -5.396,16.816 -17.535,19.089 z"
       id="path2087"
       style="fill:url(#nuvGradPN)" /><path
       fill="none"
       stroke="#d3d1cf"
       stroke-width="6"
       stroke-miterlimit="10"
       d="m 119.97,91.699 c 0,0 -88.119,0 -90.368,0 -2.71,0 -8.139,-3.278 -8.139,-10.237 0,-13.166 14.885,-11.579 14.885,-11.579 0,0 -2.991,-9.746 5.396,-17.726 10.799,-10.279 25.625,-2.727 25.625,-2.727 0,0 7.208,-18.492 26.975,-17.725 23.415,0.91 25.627,25.906 25.627,25.906 0,0 16.573,0.48 17.534,14.999 0.631,9.542 -5.396,16.816 -17.535,19.089 z"
       id="path2089" /></g><g
     id="goccia1"
     class="nuvMoG2"><g
       class="drop1AphG2"
       id="g2094"><use
         xlink:href="#drop-5"
         class="drop1MoG2"
         x="-20"
         y="-15"
         id="use2092" /></g></g><g
     id="goccia2"
     class="nuvMoG2"><g
       class="drop2AphG2"
       id="g2099"><use
         xlink:href="#drop-5"
         class="drop2MoG2"
         x="10"
         y="-25"
         id="use2097" /></g></g></g></svg>
