<?xml version="1.0" encoding="UTF-8" standalone="no"?>
<!-- Generator: Adobe Illustrator 21.1.0, SVG Export Plug-In . SVG Version: 6.00 Build 0)  -->

<svg
   version="1.1"
   id="Livello_1"
   x="0px"
   y="0px"
   viewBox="0 0 192 192"
   enable-background="new 0 0 192 192"
   xml:space="preserve"
   sodipodi:docname="safari-pinned-tab.svg"
   inkscape:version="1.3 (0e150ed, 2023-07-21)"
   xmlns:inkscape="http://www.inkscape.org/namespaces/inkscape"
   xmlns:sodipodi="http://sodipodi.sourceforge.net/DTD/sodipodi-0.dtd"
   xmlns:xlink="http://www.w3.org/1999/xlink"
   xmlns="http://www.w3.org/2000/svg"
   xmlns:svg="http://www.w3.org/2000/svg"><defs
   id="defs5"><linearGradient
     id="a"
     x1="149.99001"
     y1="119.24"
     x2="234.00999"
     y2="264.76001"
     gradientUnits="userSpaceOnUse"><stop
       offset="0"
       stop-color="#fbbf24"
       id="stop1" /><stop
       offset="0.45"
       stop-color="#fbbf24"
       id="stop2" /><stop
       offset="1"
       stop-color="#f59e0b"
       id="stop3" /></linearGradient><symbol
     id="b"
     viewBox="0 0 384 384"><!-- core --><circle
       cx="192"
       cy="192"
       r="84"
       stroke="#f8af18"
       stroke-miterlimit="10"
       stroke-width="6"
       fill="url(#a)"
       id="circle3" /><!-- rays --><path
       d="M 192,61.66 V 12 m 0,360 V 322.34 M 284.17,99.83 319.28,64.72 M 64.72,319.28 99.83,284.17 M 99.83,99.83 64.72,64.72 M 319.28,319.28 284.17,284.17 M 61.66,192 H 12 m 360,0 h -49.66"
       fill="none"
       stroke="#fbbf24"
       stroke-linecap="round"
       stroke-miterlimit="10"
       stroke-width="24"
       id="path3"><animateTransform
         attributeName="transform"
         additive="sum"
         type="rotate"
         values="0 192 192; 45 192 192"
         dur="6s"
         repeatCount="indefinite" /></path></symbol><path
     id="SVGID_1_"
     d="m 10,0 h 172 c 5.5,0 10,4.5 10,10 v 172 c 0,5.5 -4.5,10 -10,10 H 10 C 4.5,192 0,187.5 0,182 V 10 C 0,4.5 4.5,0 10,0 Z" /><rect
     id="SVGID_3_"
     width="192"
     height="192"
     x="0"
     y="0" /><path
     id="SVGID_5_"
     d="m 110,102 c 0,0 13.5,-0.1 19,0 5.5,0.1 16.3,6.7 16,17 -0.3,10.5 -7.2,13.9 -14,16 -7.9,2.4 -21,1 -21,1 z m 0,-44 c 0,0 9.5,-0.2 16,0 5.6,0.2 15.2,4.6 15,13 -0.2,8.4 -5.9,14.6 -14,15 -8.1,0.4 -17,0 -17,0 z M 38,44 h -8 v 108 c 0,0 85,-0.1 97,0 14.3,0.1 35.5,-10.7 36,-29 0.6,-22.9 -14,-30 -14,-30 0,0 10.2,-6 10,-25 -0.2,-21.1 -17.7,-26.1 -32,-26 -20.1,0.2 -47,2 -47,2 0,0 18.7,6.4 19,23 0.3,16.6 -9,24 -9,24 0,0 13.6,9.6 13,26 -0.6,16.4 -13.7,29.2 -30,31 -16.3,1.8 -34,-6 -34,-6 l 5,-14 c 0,0 15,7.1 26,4 11,-3.1 17.7,-11.2 16,-19 -1.9,-8.9 -8.6,-12.9 -14,-13 -4.2,0 -15,0 -15,0 V 84 c 0,0 8.2,0 14,0 3.5,0 9.5,-4.1 11,-9 1.5,-4.9 -0.2,-12.7 -6,-15 -5.8,-2.3 -12.6,-3.3 -22,-3 -8.5,0.3 -13,1 -13,1 z" /></defs><sodipodi:namedview
   id="namedview5"
   pagecolor="#ffffff"
   bordercolor="#000000"
   borderopacity="0.25"
   inkscape:showpageshadow="2"
   inkscape:pageopacity="0.0"
   inkscape:pagecheckerboard="0"
   inkscape:deskcolor="#d1d1d1"
   inkscape:zoom="1.5016256"
   inkscape:cx="48.613981"
   inkscape:cy="68.259357"
   inkscape:window-width="1440"
   inkscape:window-height="1034"
   inkscape:window-x="164"
   inkscape:window-y="0"
   inkscape:window-maximized="0"
   inkscape:current-layer="g3" />&#10;&#10;&#10;<g
   id="g6"
   transform="translate(0.19622016,0.04369138)"><g
     id="g3">&#10;	<defs
   id="defs1">&#10;		<path
   id="path5"
   d="m 10,0 h 172 c 5.5,0 10,4.5 10,10 v 172 c 0,5.5 -4.5,10 -10,10 H 10 C 4.5,192 0,187.5 0,182 V 10 C 0,4.5 4.5,0 10,0 Z" />&#10;	</defs>&#10;	<clipPath
   id="SVGID_2_">&#10;		<use
   xlink:href="#SVGID_1_"
   overflow="visible"
   id="use1" />&#10;	</clipPath>&#10;	<g
   clip-path="url(#SVGID_2_)"
   id="g2">&#10;		<defs
   id="defs2">&#10;			<rect
   id="rect5"
   width="192"
   height="192"
   x="0"
   y="0" />&#10;		</defs>&#10;		<clipPath
   id="SVGID_4_">&#10;			<use
   xlink:href="#SVGID_3_"
   overflow="visible"
   id="use2" />&#10;		</clipPath>&#10;		&#10;			&#10;	</g>&#10;<path
   style="opacity:0.86911;fill:#ffffff;fill-opacity:1;stroke-width:0.134311"
   d="m 69.279399,177.84745 v -1.88037 h 0.594751 0.59475 l 0.284345,-0.75997 c 0.257549,-0.68837 0.266598,-0.80544 0.09603,-1.24238 -0.103581,-0.26532 -0.957248,-2.43159 -1.897048,-4.81394 l -1.708725,-4.33154 h -0.660943 -0.660937 v -1.81319 -1.81322 h 3.223467 3.22347 v 1.81322 1.81319 h -0.335776 c -0.18468,0 -0.335852,0.0453 -0.335943,0.10077 -3.23e-4,0.23682 1.397498,4.46585 1.47616,4.46585 0.08259,0 1.622799,-4.25564 1.616284,-4.46585 -0.0016,-0.0554 -0.154223,-0.10077 -0.338899,-0.10077 h -0.335781 v -1.81319 -1.81322 h 3.156315 3.156315 v 1.81322 1.81319 h -0.587539 -0.587533 l -2.247812,5.40603 c -1.236294,2.97331 -2.277832,5.48157 -2.314525,5.57392 -0.04813,0.1211 0.12443,0.16788 0.619211,0.16788 h 0.685924 v 1.88037 1.88035 h -3.35778 -3.357778 z m 43.113891,-2.64465 c -0.79393,-0.13275 -2.05544,-0.6321 -2.78007,-1.10045 -1.98022,-1.27988 -3.14208,-3.42832 -3.16806,-5.85815 -0.0235,-2.2002 0.61519,-3.85468 2.05312,-5.31817 4.64066,-4.72321 12.73256,-0.87849 12.02654,5.71418 l -0.0942,0.87993 h -5.09313 c -2.80123,0 -5.09314,0.0517 -5.09314,0.115 0,0.0633 0.21054,0.39073 0.46787,0.72775 0.49548,0.64892 1.4815,1.22121 2.37675,1.37951 0.66225,0.11709 1.80893,-0.14238 2.42422,-0.54854 0.47426,-0.31309 0.60409,-0.3306 2.45117,-0.3306 1.24183,0 1.9504,0.05 1.9504,0.1376 0,0.32872 -1.16035,1.93211 -1.83046,2.52936 -1.53723,1.37011 -3.69942,2.00558 -5.69097,1.67258 z m 4.43228,-8.6845 c 0,-0.37381 -0.82666,-1.30256 -1.50339,-1.68906 -1.22474,-0.69946 -2.62688,-0.67351 -3.76936,0.0698 -0.52892,0.3441 -1.3085,1.30885 -1.3085,1.61929 0,0.14727 0.61771,0.18131 3.29062,0.18131 2.67292,0 3.29063,-0.034 3.29063,-0.18131 z m 19.94521,8.63997 c -3.36042,-0.67452 -5.71019,-3.50161 -5.74667,-6.91407 -0.0235,-2.2002 0.61519,-3.85468 2.05312,-5.31817 4.64066,-4.72321 12.73257,-0.87849 12.02655,5.71418 l -0.0942,0.87993 h -5.09314 c -2.80123,0 -5.09313,0.0517 -5.09313,0.115 0,0.0633 0.21053,0.39073 0.46787,0.72775 0.49548,0.64892 1.4815,1.22121 2.37674,1.37951 0.66226,0.11709 1.80894,-0.14238 2.42422,-0.54854 0.47426,-0.31309 0.60411,-0.3306 2.45118,-0.3306 1.24183,0 1.95039,0.05 1.95039,0.1376 0,0.0757 -0.24717,0.52897 -0.54927,1.00732 -1.54393,2.44465 -4.41251,3.7043 -7.17362,3.15009 z m 4.63374,-8.63997 c 0,-0.37381 -0.82666,-1.30256 -1.50338,-1.68906 -1.22475,-0.69946 -2.62689,-0.67351 -3.76937,0.0698 -0.52891,0.3441 -1.30849,1.30885 -1.30849,1.61929 0,0.14727 0.61771,0.18131 3.29062,0.18131 2.6729,0 3.29062,-0.034 3.29062,-0.18131 z m 10.71558,8.56866 c -2.37257,-0.57519 -4.48495,-2.55098 -5.22334,-4.88556 -0.36332,-1.1487 -0.39121,-2.9802 -0.0625,-4.10619 1.0927,-3.74365 4.8887,-5.98778 8.63443,-5.10456 3.32603,0.78425 5.5571,3.56975 5.56478,6.94767 0.005,2.13508 -0.62479,3.68882 -2.08889,5.15452 -1.84967,1.8517 -4.37187,2.5887 -6.82443,1.99412 z m 2.6129,-3.84612 c 0.71028,-0.21281 1.7646,-1.18047 2.04226,-1.87444 0.30705,-0.76739 0.29363,-1.96747 -0.0302,-2.69951 -0.50194,-1.13473 -1.75178,-1.98194 -2.9238,-1.98194 -2.2692,0 -3.88182,2.62025 -2.90274,4.71648 0.33124,0.70921 0.48476,0.89813 1.09659,1.34942 0.85933,0.63388 1.71982,0.78901 2.71789,0.48999 z m -107.816417,3.82903 c -0.923025,-0.2068 -1.662239,-0.55024 -2.296842,-1.06714 l -0.72516,-0.59065 v 0.74026 0.74026 h -2.686224 -2.686225 v -1.88036 -1.88035 h 0.740252 0.740252 l -0.03512,-5.33888 -0.03512,-5.33887 -0.705135,-0.0406 -0.705133,-0.0406 v -1.80618 -1.80618 h 2.686225 2.686223 v 2.91404 2.91404 l 0.436513,-0.42201 c 1.913208,-1.84965 5.533709,-1.55083 7.820968,0.64551 2.291982,2.20087 2.868794,5.57338 1.461883,8.54735 -0.532761,1.12617 -1.90084,2.49854 -3.054893,3.06449 -1.272506,0.62402 -2.649905,0.86824 -3.642468,0.64588 z m 1.410266,-3.94886 c 1.24837,-0.56509 2.013383,-1.73646 2.010408,-3.07829 -0.0041,-1.87474 -1.373028,-3.27136 -3.21921,-3.28444 -3.831437,-0.0271 -4.502371,5.39257 -0.806736,6.51673 0.607725,0.18486 1.400815,0.12426 2.015538,-0.154 z m 7.924362,1.89123 v -1.88035 h 0.671555 0.671556 v -3.15633 -3.15631 h -0.671556 -0.671555 v -1.81319 -1.81322 h 2.484758 2.484755 v 1.02539 1.02536 l 0.731155,-0.76097 c 0.787711,-0.8198 1.569304,-1.24204 2.5473,-1.37608 l 0.616574,-0.0846 v 2.0218 2.0218 l -0.675994,0.14497 c -1.254766,0.2691 -1.979908,0.7799 -2.495164,1.75764 -0.196622,0.37311 -0.257904,0.84957 -0.297044,2.30941 l -0.04932,1.83931 0.717846,0.041 0.717844,0.0411 0.03736,1.84677 0.03736,1.84678 H 59.679917 56.25119 Z m 25.116199,0 v -1.88035 h 0.671557 0.671551 v -3.15633 -3.15631 H 82.038967 81.36741 v -1.81319 -1.81322 h 2.484756 2.484756 v 0.95823 0.95821 l 0.731155,-0.76096 c 0.975408,-1.01516 1.729149,-1.35138 3.029556,-1.35138 0.744178,0 1.171395,0.0751 1.635331,0.28746 0.761193,0.34841 1.717362,1.20557 2.065065,1.85122 0.14064,0.26115 0.287303,0.47351 0.325907,0.47187 0.03859,-0.002 0.25101,-0.27232 0.472021,-0.60155 1.027775,-1.53111 3.078305,-2.35137 4.900915,-1.96048 1.510508,0.32393 2.823718,1.2574 3.427078,2.43608 0.47949,0.93671 0.60481,1.95498 0.60481,4.91461 v 2.7217 l 0.70513,0.0406 0.70513,0.0406 0.0374,1.84678 0.0374,1.84678 h -2.75716 -2.757178 l -0.003,-4.19723 c -0.002,-3.82859 -0.0253,-4.24644 -0.25736,-4.75757 -0.29726,-0.65473 -0.73699,-0.98142 -1.44961,-1.07701 -1.18025,-0.1583 -2.26825,0.5448 -2.579957,1.66727 -0.07749,0.27903 -0.141226,1.42904 -0.141642,2.55558 l -0.0015,2.04825 h 0.738709 0.73871 v 1.88035 1.88036 h -2.753406 -2.753373 v -4.34525 c 0,-4.29393 -0.0037,-4.35065 -0.304877,-4.80163 -0.352563,-0.52775 -1.060945,-0.92595 -1.647756,-0.92626 -0.705612,-3.2e-4 -1.569312,0.53705 -1.942391,1.2086 -0.314029,0.56525 -0.338682,0.74966 -0.380563,2.8467 l -0.0448,2.24231 0.71634,0.041 0.716339,0.041 0.0374,1.84678 0.03739,1.84678 h -3.428434 -3.42873 z m 42.17373,-3.15631 v -5.03668 h -0.94018 -0.94019 v -1.81319 -1.81322 h 0.94019 0.94018 v -2.21612 -2.21614 h 2.01466 2.01467 v 2.21614 2.21612 h 0.94017 0.94018 v 1.81322 1.81319 h -0.94018 -0.94017 v 3.15631 3.15633 h 1.00733 1.00733 v 1.88035 1.88036 h -3.02199 -3.022 z"
   id="path8"
   sodipodi:nodetypes="ccccssscccccccccscscscccccccccsssccccccssssscssssssssssssssssssscssssssssssssssssssssssssscsssssccsccccccccccccccccsssssscsssccccccccccccccsscccsssccccccccccccccccccccccsssssssssccccccccsssccccccccsscsscccccccccccccccccccccccccccccccccccccccccc" /><path
   d="m 89.332763,117.73157 v -6.56425 h 2.344367 2.344361 V 100.14875 89.130178 H 91.67713 89.332763 v -6.3298 -6.329852 h 8.674163 8.674194 v 3.345082 3.34512 l 2.55242,-2.65646 c 3.40513,-3.543915 6.03637,-4.717643 10.57606,-4.717643 2.59789,0 4.0893,0.262176 5.70887,1.00351 2.6573,1.216301 5.99525,4.208643 7.20906,6.462563 0.49097,0.91168 1.00296,1.65299 1.13773,1.64729 0.13476,-0.008 0.87626,-0.95066 1.6478,-2.10002 3.58792,-5.345046 10.74623,-8.208552 17.1089,-6.843976 5.27312,1.130844 9.85744,4.389586 11.96377,8.504316 1.67391,3.26997 2.11138,6.824719 2.11138,17.156682 v 9.50133 l 2.46158,0.14159 2.4616,0.1416 0.13062,6.44704 0.13062,6.44703 h -9.62517 -9.62518 l -0.01,-14.65235 c -0.008,-13.36544 -0.0882,-14.82416 -0.89844,-16.608503 -1.03775,-2.28562 -2.57282,-3.426099 -5.06055,-3.759789 -4.12019,-0.55263 -7.91836,1.901869 -9.00651,5.820342 -0.27051,0.97411 -0.49302,4.98876 -0.49447,8.92146 l -0.006,7.15033 h 2.5788 2.57884 v 6.56424 6.56427 h -9.61206 -9.61191 v -15.16909 c 0,-14.98991 -0.0124,-15.187953 -1.06431,-16.762273 -1.2308,-1.84236 -3.70373,-3.232499 -5.75224,-3.233549 -2.46328,-0.001 -5.47841,1.874829 -6.78083,4.219159 -1.09626,1.973243 -1.18232,2.617033 -1.32853,9.937733 l -0.1564,7.82779 2.50074,0.14314 2.5007,0.14312 0.13062,6.44704 0.13062,6.44703 H 101.3012 89.331662 Z"
   style="fill:#ffffff;stroke-width:0.468872"
   id="path1-8" /></g><g
     id="g5">&#10;	<defs
   id="defs3">&#10;		<path
   id="path6"
   d="m 110,102 c 0,0 13.5,-0.1 19,0 5.5,0.1 16.3,6.7 16,17 -0.3,10.5 -7.2,13.9 -14,16 -7.9,2.4 -21,1 -21,1 z m 0,-44 c 0,0 9.5,-0.2 16,0 5.6,0.2 15.2,4.6 15,13 -0.2,8.4 -5.9,14.6 -14,15 -8.1,0.4 -17,0 -17,0 z M 38,44 h -8 v 108 c 0,0 85,-0.1 97,0 14.3,0.1 35.5,-10.7 36,-29 0.6,-22.9 -14,-30 -14,-30 0,0 10.2,-6 10,-25 -0.2,-21.1 -17.7,-26.1 -32,-26 -20.1,0.2 -47,2 -47,2 0,0 18.7,6.4 19,23 0.3,16.6 -9,24 -9,24 0,0 13.6,9.6 13,26 -0.6,16.4 -13.7,29.2 -30,31 -16.3,1.8 -34,-6 -34,-6 l 5,-14 c 0,0 15,7.1 26,4 11,-3.1 17.7,-11.2 16,-19 -1.9,-8.9 -8.6,-12.9 -14,-13 -4.2,0 -15,0 -15,0 V 84 c 0,0 8.2,0 14,0 3.5,0 9.5,-4.1 11,-9 1.5,-4.9 -0.2,-12.7 -6,-15 -5.8,-2.3 -12.6,-3.3 -22,-3 -8.5,0.3 -13,1 -13,1 z" />&#10;	</defs>&#10;	<clipPath
   id="SVGID_6_">&#10;		<use
   xlink:href="#SVGID_5_"
   overflow="visible"
   id="use3" />&#10;	</clipPath>&#10;	&#10;</g><path
     d="m 55.520778,125.28167 c -3.222216,-0.72198 -5.802806,-1.92091 -8.018178,-3.72537 l -2.531502,-2.06193 v 2.58421 2.58421 h -9.377484 -9.37751 v -6.56427 -6.56425 h 2.584187 2.584186 L 31.261756,92.896487 31.139034,74.258708 28.677437,74.117112 26.215866,73.975504 v -6.3053 -6.305314 h 9.377486 9.377509 v 10.172804 10.172804 l 1.523839,-1.47323 c 6.678923,-6.457055 19.317951,-5.413879 27.302681,2.25346 8.001235,7.683139 10.014849,19.456452 5.103391,29.838462 -1.859846,3.93139 -6.635755,8.72225 -10.664513,10.69796 -4.442274,2.17843 -9.25072,3.03105 -12.715719,2.25474 z m 4.923194,-13.78533 c 4.358014,-1.9727 7.02864,-6.06191 7.018256,-10.74617 -0.01531,-6.54469 -4.79318,-11.420192 -11.238134,-11.465892 -13.375397,-0.0946 -15.717593,18.825262 -2.816278,22.749652 2.121533,0.64535 4.890181,0.43379 7.036156,-0.53759 z"
     style="fill:#ffffff;stroke-width:0.468872"
     id="path1" /></g></svg>
