<?xml version="1.0" encoding="UTF-8" standalone="no"?>
<!-- Generator: Adobe Illustrator 21.1.0, SVG Export Plug-In . SVG Version: 6.00 Build 0)  -->

<svg
   version="1.1"
   id="Livello_1"
   x="0px"
   y="0px"
   viewBox="0 0 192 192"
   enable-background="new 0 0 192 192"
   xml:space="preserve"
   sodipodi:docname="safari-pinned-tab.svg"
   inkscape:version="1.3 (0e150ed, 2023-07-21)"
   xmlns:inkscape="http://www.inkscape.org/namespaces/inkscape"
   xmlns:sodipodi="http://sodipodi.sourceforge.net/DTD/sodipodi-0.dtd"
   xmlns:xlink="http://www.w3.org/1999/xlink"
   xmlns="http://www.w3.org/2000/svg"
   xmlns:svg="http://www.w3.org/2000/svg"><defs
   id="defs5"><linearGradient
     id="linearGradient7"
     inkscape:collect="always"><stop
       style="stop-color:#213a8e;stop-opacity:1;"
       offset="0"
       id="stop7" /><stop
       style="stop-color:#0862ae;stop-opacity:1;"
       offset="1"
       id="stop8" /></linearGradient><linearGradient
     inkscape:collect="always"
     xlink:href="#linearGradient7"
     id="linearGradient8"
     x1="102.60477"
     y1="147.91245"
     x2="55.164986"
     y2="-37.925926"
     gradientUnits="userSpaceOnUse"
     gradientTransform="matrix(1.1412321,0,0,1.0497504,-13.88904,-3.1499748)" /><linearGradient
     id="a"
     x1="149.99001"
     y1="119.24"
     x2="234.00999"
     y2="264.76001"
     gradientUnits="userSpaceOnUse"><stop
       offset="0"
       stop-color="#fbbf24"
       id="stop1" /><stop
       offset="0.45"
       stop-color="#fbbf24"
       id="stop2" /><stop
       offset="1"
       stop-color="#f59e0b"
       id="stop3" /></linearGradient><symbol
     id="b"
     viewBox="0 0 384 384"><!-- core --><circle
       cx="192"
       cy="192"
       r="84"
       stroke="#f8af18"
       stroke-miterlimit="10"
       stroke-width="6"
       fill="url(#a)"
       id="circle3" /><!-- rays --><path
       d="M 192,61.66 V 12 m 0,360 V 322.34 M 284.17,99.83 319.28,64.72 M 64.72,319.28 99.83,284.17 M 99.83,99.83 64.72,64.72 M 319.28,319.28 284.17,284.17 M 61.66,192 H 12 m 360,0 h -49.66"
       fill="none"
       stroke="#fbbf24"
       stroke-linecap="round"
       stroke-miterlimit="10"
       stroke-width="24"
       id="path3"><animateTransform
         attributeName="transform"
         additive="sum"
         type="rotate"
         values="0 192 192; 45 192 192"
         dur="6s"
         repeatCount="indefinite" /></path></symbol><path
     id="SVGID_1_"
     d="m 10,0 h 172 c 5.5,0 10,4.5 10,10 v 172 c 0,5.5 -4.5,10 -10,10 H 10 C 4.5,192 0,187.5 0,182 V 10 C 0,4.5 4.5,0 10,0 Z" /><rect
     id="SVGID_3_"
     width="192"
     height="192"
     x="0"
     y="0" /><path
     id="SVGID_5_"
     d="m 110,102 c 0,0 13.5,-0.1 19,0 5.5,0.1 16.3,6.7 16,17 -0.3,10.5 -7.2,13.9 -14,16 -7.9,2.4 -21,1 -21,1 z m 0,-44 c 0,0 9.5,-0.2 16,0 5.6,0.2 15.2,4.6 15,13 -0.2,8.4 -5.9,14.6 -14,15 -8.1,0.4 -17,0 -17,0 z M 38,44 h -8 v 108 c 0,0 85,-0.1 97,0 14.3,0.1 35.5,-10.7 36,-29 0.6,-22.9 -14,-30 -14,-30 0,0 10.2,-6 10,-25 -0.2,-21.1 -17.7,-26.1 -32,-26 -20.1,0.2 -47,2 -47,2 0,0 18.7,6.4 19,23 0.3,16.6 -9,24 -9,24 0,0 13.6,9.6 13,26 -0.6,16.4 -13.7,29.2 -30,31 -16.3,1.8 -34,-6 -34,-6 l 5,-14 c 0,0 15,7.1 26,4 11,-3.1 17.7,-11.2 16,-19 -1.9,-8.9 -8.6,-12.9 -14,-13 -4.2,0 -15,0 -15,0 V 84 c 0,0 8.2,0 14,0 3.5,0 9.5,-4.1 11,-9 1.5,-4.9 -0.2,-12.7 -6,-15 -5.8,-2.3 -12.6,-3.3 -22,-3 -8.5,0.3 -13,1 -13,1 z" /></defs><sodipodi:namedview
   id="namedview5"
   pagecolor="#ffffff"
   bordercolor="#000000"
   borderopacity="0.25"
   inkscape:showpageshadow="2"
   inkscape:pageopacity="0.0"
   inkscape:pagecheckerboard="0"
   inkscape:deskcolor="#d1d1d1"
   inkscape:zoom="0.75081282"
   inkscape:cx="91.900402"
   inkscape:cy="-3.3297247"
   inkscape:window-width="1440"
   inkscape:window-height="1034"
   inkscape:window-x="0"
   inkscape:window-y="0"
   inkscape:window-maximized="0"
   inkscape:current-layer="Livello_1" />&#10;&#10;&#10;<g
   id="g6"
   transform="translate(0.19622016,0.04369138)"><g
     id="g3">&#10;	<defs
   id="defs1">&#10;		<path
   id="path5"
   d="m 10,0 h 172 c 5.5,0 10,4.5 10,10 v 172 c 0,5.5 -4.5,10 -10,10 H 10 C 4.5,192 0,187.5 0,182 V 10 C 0,4.5 4.5,0 10,0 Z" />&#10;	</defs>&#10;	<clipPath
   id="SVGID_2_">&#10;		<use
   xlink:href="#SVGID_1_"
   overflow="visible"
   id="use1" />&#10;	</clipPath>&#10;	<g
   clip-path="url(#SVGID_2_)"
   id="g2">&#10;		<defs
   id="defs2">&#10;			<rect
   id="rect5"
   width="192"
   height="192"
   x="0"
   y="0" />&#10;		</defs>&#10;		<clipPath
   id="SVGID_4_">&#10;			<use
   xlink:href="#SVGID_3_"
   overflow="visible"
   id="use2" />&#10;		</clipPath>&#10;		&#10;			&#10;	</g>&#10;<rect
   style="opacity:1;fill:url(#linearGradient8);fill-opacity:1;fill-rule:evenodd;stroke:none;stroke-width:5.85781;stroke-linecap:round;stroke-linejoin:bevel;stroke-dasharray:none;stroke-opacity:1;paint-order:fill markers stroke"
   id="rect6"
   width="191.97809"
   height="191.94453"
   x="0.022414217"
   y="0.049100757"
   ry="20.686869"
   rx="20.686869" /><path
   d="m 39.103129,40.213384 c 0.30941,-5.05015 6.94264,-3.66968 7.49279,0.58152 0.24075,1.85307 -2.13111,3.05171 -3.60907,3.08816 -2.26843,0 -3.50565,-1.45337 -3.88372,-3.66968 M 141.83637,30.003724 c -2.30277,-0.72647 -2.23411,-3.77861 -0.89347,-5.34049 1.75303,-2.03447 4.26179,-2.10737 6.53023,-1.16262 2.30277,0.94476 1.54662,3.77861 -0.0687,5.15909 -1.50167,1.375237 -3.60435,1.882943 -5.5681,1.34445 M 36.903359,45.372894 c -2.37355,-3.34247 -2.95592,-9.30093 0.44673,-12.28016 4.1588,-3.59678 8.14595,0.36324 11.6516,3.05171 1.40929,1.09014 3.43698,2.50706 4.0558,4.32325 0.79048,2.28878 -1.27154,4.03292 -2.99025,4.97768 -3.64509,1.99844 -7.35546,3.4514 -11.30785,1.41692 -0.702749,-0.381682 -1.331371,-0.886272 -1.85603,-1.48982 m 148.342721,-6.72139 c -3.60907,2.25275 -8.42059,1.5623 -11.961,-0.32679 -3.84939,-2.03447 -6.73665,-4.94122 -11.17053,-5.55877 -4.36563,-0.58152 -8.11161,-0.21786 -12.3734,0.83583 -3.36833,0.83583 -8.833,1.96199 -11.44391,-1.38048 -2.26844,-2.8703 -2.64651,-6.79429 -0.0343,-9.66374 2.40576,-2.68847 5.94617,-3.59678 9.31449,-3.92399 3.231,-0.32679 6.4959,-0.54507 9.69257,-0.79938 3.12758,-0.25431 6.22125,-1.27154 9.34882,-1.27154 m 0.0343,-0.0725 c 3.60907,0.0725 7.11472,-0.47217 10.72337,-0.0725 3.40265,0.36324 5.29257,1.675208 8.2824,3.455378 3.1619,1.88909 4.49973,5.555978 4.05469,9.516418 -0.44674,3.92399 -1.16699,7.628514 -4.46495,9.227264 m -152.260781,5.84915 c -1.548682,-4.057769 -1.374942,-8.571716 0.48106,-12.49844 1.30588,-2.8703 6.18819,-8.2837 9.48616,-5.74061 1.58095,1.2351 2.7495,3.01569 4.12446,4.50509 1.437685,1.582554 3.093145,2.952586 4.91665,4.06894 1.85603,1.16262 3.88372,2.03448 5.63718,3.34247 1.30588,0.98079 3.6451,3.5243 2.61218,5.4863 -1.44363,2.68847 -3.91806,3.4514 -6.56457,4.54153 -2.317321,1.012397 -4.706975,1.850415 -7.14905,2.50707 -5.70542,1.38047 -10.86111,-0.61755 -13.54196,-6.21277 m 152.364201,-0.98079 c -4.0558,1.88909 -8.28327,1.962 -12.61373,1.74414 -4.26179,-0.25431 -8.18027,-0.36324 -12.44207,0.25431 -2.30277,0.32678 -4.43388,0.654 -6.70232,-0.0725 -1.99208,-0.654 -2.95591,-2.83385 -4.46821,-4.1783 -3.16191,-2.90675 -7.76787,-2.90675 -11.17052,-5.48629 -5.70543,-4.32326 -5.01794,-12.89814 0.65315,-16.8946 5.73975,-4.03292 13.36987,-4.43261 19.93486,-5.70416 m -7.97306,-2.262626 c 4.2618,-0.79937 10.35999,1.160217 14.58788,0.215457 32.07352,-7.642088 30.39033,26.837522 20.33652,32.312405 M 29.513559,42.974334 c -0.9278,-4.28723 -1.06556,-8.75628 0.68748,-12.82523 1.71871,-3.92399 4.94928,-7.26646 8.11161,-9.91805 2.3371,-1.962 9.14241,-6.61204 9.3145,-0.39969 0.10299,4.54153 0.0343,8.28369 3.60907,11.44391 3.29966,2.94278 7.93953,3.37892 11.17052,6.3946 2.61218,2.43416 4.50254,8.10229 3.88373,11.73551 -0.61882,3.63323 -8.14595,2.83386 -10.75813,3.41538 -3.98714,0.87185 -7.83653,2.07092 -11.92667,1.81661 -3.777309,-0.18118 -7.373806,-1.67133 -10.17236,-4.21475 m 0,-0.0365 c -1.95903,-2.17985 -3.09409,-4.57756 -3.91806,-7.41184 m 162.172101,0.928544 c -3.51355,2.06164 -10.00642,5.315962 -13.96797,6.265436 -4.09014,1.01724 -8.00819,2.57954 -12.09833,3.63323 -8.00819,2.10738 -18.49124,3.01568 -22.51271,-6.3946 -0.75815,-1.889951 -1.73894,-3.682767 -2.92159,-5.34049 -1.16855,-1.59876 -3.09409,-2.72492 -4.46821,-4.1783 -3.05891,-3.26999 -4.81195,-7.37496 -4.12447,-12.0623 1.37497,-9.26491 9.0638,-12.717486 19.24545,-14.965082 M 27.279879,46.571534 c -3.16234,-8.71983 -2.81859,-17.73212 3.23057,-24.88753 4.43388,-5.26844 13.8857,-14.46086 21.17208,-10.46397 4.02147,2.2163 -0.34374,8.6109 -0.61882,11.77154 -0.4124,5.08618 2.57785,7.81153 6.83964,9.40944 2.02769,0.76293 4.33046,1.34445 6.0835,2.76137 1.82255,1.48983 3.02458,3.37892 4.1588,5.44984 2.09678,3.81464 5.25869,7.0486 6.77098,11.154 1.30588,3.56033 0.10299,7.95691 -3.47132,8.97414 m -0.0343,-0.0365 c -1.89037,0.25431 -3.81464,-0.32678 -5.70543,-0.654 -2.062903,-0.393122 -4.176632,-0.442245 -6.25557,-0.14538 -4.22747,0.654 -7.66446,1.85307 -11.96101,0.654 -8.07685,-2.28878 -16.70387,-5.23198 -20.24427,-13.987 M 146.6475,69.242714 c -2.40576,-0.29076 -1.51229,-3.96001 -1.64961,-5.5948 -0.17166,-2.1434 -1.16856,-3.81463 -2.33711,-5.52232 -1.13421,-1.67123 -2.50918,-3.12461 -3.60906,-4.83187 -1.23722,-1.88909 -1.9247,-3.92399 -2.57785,-6.10342 -1.27155,-4.25077 -4.1588,-7.33893 -6.01483,-11.26292 -1.80906,-3.977753 -2.18527,-8.459128 -1.06471,-12.68282 0.75614,-2.94278 1.82255,-5.81308 4.09014,-7.84798 2.3371,-2.07092 5.36168,-3.12461 8.04252,-4.54153 2.40117,-1.3672664 4.98064,-2.3943201 7.66445,-3.05171 2.95592,-0.61755 5.9805,-0.69045 8.86776,-1.67124 m 0.0343,0.0365 c 2.71517,-0.94475 5.25869,-2.43416 7.97386,-3.26999 2.4401,-0.7252 6.7805,-1.8089905 7.96285,-3.39742339 M 192.63588,47.334464 c -6.73665,5.41339 -15.08901,7.77508 -22.3063,12.35306 -3.57431,2.28879 -7.42413,3.77861 -11.20486,5.63168 -3.95281,1.88909 -7.9052,4.25077 -12.37341,3.99647 h -0.13732 M 22.742579,47.334464 c -2.7495,-7.95691 -3.53998,-17.33031 -0.68748,-25.32367 1.425489,-4.236644 4.41219,-7.770668 8.35193,-9.88245 3.504202,-1.952762 7.119265,-3.6995782 10.82679,-5.23156 3.95281,-1.63479 7.93953,-2.25276 12.064,-0.83583 1.78736,0.61754 3.84939,1.63478 4.53517,3.66968 0.65315,1.92554 -0.10299,4.28722 -0.85914,6.06739 -1.47796,3.37892 -4.91664,8.46552 -1.78737,11.95252 2.92159,3.23354 7.76787,2.90676 11.10144,5.44985 2.57785,1.96199 4.05581,5.12305 5.9805,7.70259 m 0.0343,0 c 3.29966,3.66968 6.4959,6.21278 7.49279,11.40831 0.75614,3.99647 0.61882,8.90082 -1.20288,12.53447 -0.96256,1.92554 -2.4401,3.74216 -4.46821,4.39616 -2.16545,0.72647 -4.19314,-0.25431 -6.0835,-1.308 -4.05581,-2.25275 -7.42413,-1.85307 -11.75459,-1.12617 -3.33399,0.58152 -6.56456,0.69045 -9.79556,-0.39968 -3.231,-1.05369 -6.11783,-3.01569 -9.10808,-4.65047 -6.18819,-3.37892 -11.99491,-7.26646 -14.60751,-14.42399 m 108.200031,31.82763 c -4.09013,-1.96199 -5.49943,-6.17632 -3.98714,-10.60893 1.30588,-3.85108 5.19002,-6.97569 4.84628,-11.33582 -0.34374,-4.21475 -0.9278,-9.15513 -2.19977,-13.15244 -1.23721,-3.85109 -3.7464,-7.30291 -4.2618,-11.44391 -0.44274,-3.65075 -0.1743,-7.352692 0.79048,-10.90138 0.89347,-3.34247 1.47796,-7.26646 3.71207,-9.95493 2.2341,-2.72492 5.91183,-2.28878 8.79867,-3.70571 2.92158,-1.45338 5.8775,-3.05171 9.00508,-3.92399 m -0.0343,0.0365 c 4.02147,-0.87101 9.23984,-2.0237229 12.88494,-4.13067285 M 192.01764,52.585817 c -6.25558,6.35773 -8.489,5.392807 -15.8788,9.898737 -3.84939,2.36168 -7.62927,4.75939 -11.51427,7.08463 -3.60907,2.1434 -7.04605,4.75939 -10.79245,6.64891 -4.91664,2.47061 -10.31096,3.23354 -15.7074,3.63323 m 0,-0.0365 c -2.44052,0.14538 -4.81195,0.10892 -7.14905,-0.654 M 16.556089,49.332484 c -1.37497,-3.81463 -1.58096,-7.9569 -2.37355,-11.91692 -0.85914,-4.32325 -2.57785,-8.50155 -2.40577,-12.96976 0.13733,-3.96002 2.16544,-8.3566 4.57121,-11.37186 2.8881,-3.63407 6.56668,-5.92286 10.10667,-8.72068 1.20288,-0.94476 3.831685,-3.68708162 4.587835,-5.06756161 M 69.426697,-0.92978582 C 68.739207,1.0322142 67.045759,4.389714 65.877209,6.024924 c -1.227734,1.8056919 -2.29726,3.714023 -3.19666,5.70373 -1.6492,3.37807 -4.57078,7.23043 -5.12051,11.00734 -0.75615,5.41339 6.80531,5.55877 10.00282,7.19398 4.12447,2.10738 5.84317,7.0486 9.6239,9.66375 1.82255,1.27154 3.95239,2.50706 5.05228,4.61401 1.09988,2.10695 1.54662,4.32326 1.85603,6.68494 0.551,4.14185 0.96256,8.538 -0.0343,12.64382 -2.06203,8.2837 -8.83301,14.64185 -17.04761,14.82368 -1.616298,0.05825 -3.218622,-0.318217 -4.63987,-1.09014 m 0.0343,0 c -1.95903,-1.38047 -3.71206,-2.7974 -6.04917,-3.4514 -2.06202,-0.54507 -4.1588,-0.76293 -6.25557,-1.12616 -4.22747,-0.72648 -8.31761,-1.85307 -12.09833,-4.03292 -3.647104,-2.166626 -7.180444,-4.519262 -10.58604,-7.0486 -3.36833,-2.47061 -6.83965,-5.19554 -9.10808,-8.86522 -0.641655,-1.089994 -1.215643,-2.218432 -1.71871,-3.37892 m 107.131521,36.22591 c -3.6451,-1.92555 -4.81196,-7.0486 -4.63987,-11.00862 0.17166,-4.46906 1.51229,-8.3922 2.78383,-12.64382 1.27155,-4.21433 2.47485,-8.71984 2.13111,-13.18847 -0.34374,-4.43261 -2.2341,-7.92046 -3.50565,-12.02585 -0.96256,-3.01568 -1.7187,-6.06739 -1.13422,-9.26491 0.58449,-3.19751 2.0277,-6.17631 3.05892,-9.2649 1.89079,-5.63252 2.37575,-13.3521016 4.4382,-18.87442161 m 6.46433,0.71820876 c 1.95902,1.34445005 8.20926,1.98337925 10.37944,0 M 192.28139,59.54526 c -8.01358,4.074015 -26.62383,15.366877 -34.01326,20.486574 -2.85293,1.99844 -5.84275,3.56032 -9.21108,4.3597 -3.43699,0.79938 -6.94264,1.09014 -10.41438,1.63478 m 0.0343,0 c -4.91664,0.61755 -10.2423,1.780169 -14.91692,-0.47216 M 12.568949,54.382644 c -1.75304,-3.66968 -2.8872598,-7.44829 -3.8837298,-11.40831 -1.06555,-4.10539 -3.02458,-8.02938 -3.81463,-12.20683 -1.71913,-9.19285 3.40223,-16.96793 8.2828398,-24.0161 1.30588,-1.8891 7.3296,-6.21908859 8.18917,-8.4349686 M 75.38711,-0.92935582 C 73.42808,2.7394742 70.140279,7.514324 67.699339,10.783474 c -1.247293,1.703423 -2.339535,3.515122 -3.26364,5.41339 -0.79047,1.5623 -2.37355,4.43261 -1.54662,6.24922 1.06556,2.25275 4.09014,2.76137 6.15216,3.48785 2.017623,0.721009 3.9346,1.697445 5.70415,2.90548 1.78737,1.23509 3.43699,2.65244 5.25869,3.81464 1.78737,1.12616 3.6451,2.10737 5.19003,3.56032 3.161906,3.01568 3.814633,7.08463 4.433875,11.33583 0.551003,3.99647 1.753037,7.84798 2.165442,11.84444 0.446736,4.46906 -3.196241,8.10229 -5.430347,11.44391 -2.26844,3.41537 -4.77762,6.75784 -7.93953,9.22846 -1.403025,1.088146 -2.92438,2.014465 -4.53518,2.76137 m -0.0687,0.0364 c -3.78073,1.74414 -7.59579,3.5243 -11.47951,5.013699 -3.84939,1.45338 -8.14595,1.88909 -10.68904,-2.143399 -1.13421,-1.81661 -2.13111,-3.59678 -3.64509,-5.08618 -1.54663,-1.52586 -3.88373,-2.17985 -5.80673,-2.8703 -4.26179,-1.52586 -7.59578,-3.56033 -11.34218,-6.17632 -3.40266,-2.39814 -6.73665,-5.08618 -10.00282,-7.7026 -3.36833,-2.68847 -6.15216,-5.63167 -8.24894,-9.48276 m 179.176631,12.1073 c -8.28327,4.28723 -21.66009,11.72914 -29.25631,17.32436 -2.88725,2.10738 -5.84317,4.250779 -9.24583,5.377369 -3.50565,1.16261 -7.11472,1.85306 -10.75812,2.50706 m 0.0343,0 c -9.03941,1.78016 -18.49123,6.10342 -26.60285,-0.72648 -3.26363,-2.76137 -4.0558,-7.229999 -6.56456,-10.536439 -2.57785,-3.37892 -7.21772,-5.44985 -8.73128,-9.62815 -2.062026,-5.70415 3.23099,-6.97569 6.94264,-9.30093 3.78073,-2.36168 5.29302,-6.68493 6.53023,-10.89968 1.34063,-4.57757 0.89347,-8.79232 -0.10299,-13.40675 -0.92781,-4.43261 -1.58096,-8.61091 -0.0343,-13.00707 1.13421,-3.26999 3.26363,-6.03136 4.63987,-9.192 m 0.0343,-0.0365 c 1.78736,-4.65046 1.82254,-11.1325798 2.88725,-15.92841982 M 192.15847,74.144357 c -4.29613,2.21631 -6.46865,3.818617 -10.72918,6.180307 -4.12447,2.28878 -8.2146,4.75939 -12.20132,7.266449 -6.83964,4.28723 -13.57629,7.73863 -21.34416,9.80955 m 0,0 c -4.19314,1.12617 -8.48969,2.07093 -12.71546,3.124607 -3.91805,0.94476 -8.00819,1.85307 -12.02966,1.09014 -3.99812,-0.76341 -7.74285,-2.511513 -10.89545,-5.086177 -3.16191,-2.57954 -5.53377,-5.84911 -8.18028,-8.93769 -2.78384,-3.269989 -6.564566,-6.467079 -10.345294,-8.356599 -4.399547,-2.17985 -7.870867,2.47061 -11.170527,4.94123 -3.29966,2.47061 -7.11472,3.923989 -10.75812,5.667699 -3.74639,1.81661 -7.35546,3.88754 -11.10186,5.77663 -2.81817,1.41692 -5.67109,2.76137 -8.52402,4.14185 -2.7495,1.344437 -6.22124,3.996457 -7.8022,-0.14538 m 0.0343,0 c -1.20288,-4.1783 -1.09988,-8.68339 -4.1588,-12.02586 -2.68084,-2.942779 -6.63365,-4.178289 -9.79556,-6.467079 -3.05891,-2.2163 -5.70542,-5.08618 -8.59268,-7.52076 -2.92159,-2.47062 -6.39291,-4.35971 -8.97075,-7.26646 -4.6398698,-5.23199 -6.5645698,-12.71545 -9.3488298,-19.1109 -1.54662,-3.5243 -3.26362999,-6.93967 -4.19312999,-10.75431 C -1.4597682,32.846343 -1.6572003,29.11548 -1.2490008,25.426534 m 0.0343,0 c 0.41241001,-4.39615 1.75304001,-8.3922 3.47132,-12.38909 M 79.312269,-1.3599623 c -2.967465,3.2968942 -5.690029,9.0688665 -8.14594,12.7626263 -2.40577,3.59678 -3.98714,8.02938 0.58449,10.46355 3.84939,2.03447 8.11161,2.8703 12.30474,3.88753 4.158799,0.98079 7.011723,3.81464 10.276627,6.46708 2.543091,2.03448 5.980504,3.48785 8.351934,0.39969 2.26844,-2.97923 3.43699,-6.72139 4.84629,-10.20924 1.37496,-3.48784 2.7495,-7.01214 3.98714,-10.5729 1.27155,-3.59677 1.75304,-10.428665 3.231,-13.952125 m -101.895355,95.8886 c 2.88725,3.161057 7.208034,11.182881 8.479994,15.179341 1.30588,4.1054 3.95239,8.02939 6.04917,11.73509 2.16544,3.81464 5.01794,6.64892 9.34882,7.23001 2.50919,0.32679 4.94928,-0.25431 7.25205,-1.16261 m 0.0343,0 c 3.7464,-1.59876 7.01173,-4.25078 10.10497,-6.9757 3.04835,-2.74134 6.405176,-5.11885 10.00283,-7.08463 3.74639,-1.99844 7.07827,-4.61401 11.03277,-6.24922 3.95451,-1.63521 7.97386,-1.09014 11.89234,0.32679 3.780729,1.38047 7.802203,2.61599 11.23919,4.83187 3.263631,2.07092 6.289911,4.65046 9.451821,6.93967 2.92159,2.10737 6.11783,4.65046 9.34883,6.14029 1.77654,0.83117 3.68395,1.34746 5.63718,1.52586 1.71871,0.18183 4.1588,0.14538 5.60243,1.34444 2.09678,1.78017 -3.36832,10.5 -4.29613,12.35307 m -0.0343,0.0365 c -2.13111,3.99646 -5.05227,6.46708 -8.55834,9.01059 -3.50608,2.54352 -6.73665,5.4863 -10.20797,8.02939 -3.40266,2.47061 -7.35547,3.77861 -10.998448,5.77663 -3.677519,2.07684 -6.792304,5.02023 -9.073743,8.57445 -2.40577,3.63323 -3.40266,9.192 -7.62928,10.89969 -3.74639,1.4894 -7.69878,2.36168 -11.47951,3.81463 -3.95281,1.52586 -9.137688,2.87784 -12.850598,4.91232 -3.95239,2.14382 -17.812903,-1.3056 -22.109463,-1.48701 M 81.687989,11.946934 c 0.27508,-2.10737 3.16191,-3.56033 5.01794,-3.37892 0.24075,1.92554 -4.53517,5.7406 -5.01794,3.37892 m 7.525431,-4.79585 c 1.031224,-2.2163 1.793631,-5.6502575 2.962605,-7.7576375 m 9.935705,-0.969697 c -0.89347,2.65245 -2.758583,7.4557945 -5.301674,8.4365745 -1.443628,0.58152 -6.564565,1.92555 -7.595788,0.29076 M 0.46901695,132.33245 c 3.95114505,1.94103 5.31496055,-8.80838 9.05237095,-7.30673 2.7838301,3.34247 -4.9860785,13.84122 -0.4148785,14.24048 4.2961296,0.36324 4.3563296,-2.01189 8.6524596,-1.64863 4.12447,0.36324 8.24894,0.83583 12.37341,1.09014 4.03998,0.27037 8.091681,-0.31143 11.89234,-1.70769 3.98714,-1.52585 7.52712,-3.92398 11.27437,-6.03093 3.74639,-2.07093 7.62927,-3.01569 11.65159,-4.1054 3.81464,-1.01724 8.00819,-3.59678 11.99491,-3.23354 3.67773,0.32679 7.28638,3.70571 10.483046,5.52232 m 0.06866,0 c 1.748404,1.00852 3.374588,2.21543 4.846283,3.59678 1.237214,1.27154 3.368324,3.37892 3.677733,5.30446 0.412405,2.65245 -0.171658,3.92399 -2.3371,5.34049 -1.787369,1.16262 -4.021474,1.59876 -6.049165,2.17986 -4.433877,1.27154 -7.527117,3.88753 -10.172357,7.81152 -2.40577,3.63323 -4.88062,7.0486 -7.97386,10.06428 -3.334,3.23354 -6.70232,5.52233 -11.1362,6.68494 -4.02147,1.05369 -8.35193,1.63478 -12.4764,2.10738 -4.39955,0.47216 -8.48969,-0.50862 -12.71545,-1.63479 -3.92187,-1.05029 -7.87469,-2.06753 -11.79274,-3.08477 -5.49943,-1.41692 -10.99844,-3.01568 -16.1541398,-5.44984 m 0,0 C -4.0237371,158.47349 9.5410856,149.02031 3.3781079,141.85822 M 154.75473,191.21779 c 2.61218,-8.90082 2.3084,-20.6078 1.58658,-29.58195 -0.17166,-2.17985 -0.27508,-4.50508 -1.09989,-6.53998 -0.85914,-2.07092 -2.57784,-3.63323 -3.02458,-5.88598 -0.89347,-4.50509 4.77762,-7.41184 6.32424,-11.1896 0.82481,-2.03447 1.68395,-4.94123 -0.27507,-6.61204 -1.20288,-1.05369 -3.95281,-1.48983 -5.4651,-1.59875 -3.98715,-0.36324 -8.04253,0.21785 -11.51427,2.36168 -6.56457,4.03292 -8.93642,10.93529 -11.99491,17.80163 m -0.0687,0 c -2.02769,4.28723 -4.81196,6.61204 -8.73128,8.90082 -3.57432,2.07093 -6.80531,4.7594 -10.44871,6.64891 -3.50566,1.81662 -8.69568,3.16106 -10.96412,6.83032 -2.543091,4.1054 -1.477959,9.51921 1.9247,12.71545 3.16191,2.97923 11.51559,1.71519 14.98691,4.1129 m 75.60659,-98.234532 c -2.68085,1.56231 -5.97382,4.455175 -8.68899,5.981035 -2.64651,1.48982 -5.60243,2.1434 -8.45493,2.97923 -5.94617,1.707677 -12.02966,3.197087 -17.9415,5.086177 m 0.0343,-0.0365 c -4.22881,1.53497 -8.54392,2.82086 -12.92314,3.85108 -4.2618,0.94476 -8.52402,2.32524 -12.85448,2.90676 -4.33046,0.54507 -8.73128,-0.87186 -12.75148,-2.47061 -3.57106,-1.37383 -6.89198,-3.3254 -9.82989,-5.77664 -6.22125,-5.231977 -12.991808,-12.934147 -21.653151,-11.335817 -8.07685,1.48982 -15.29499,5.52232 -22.47838,9.446307 -4.39954,2.39813 -8.48968,4.83187 -11.5486,9.04662 m 0,0 c -2.50918,3.23354 -5.25868,7.77508 -9.52048,8.42907 -4.74329,0.72648 -6.87397,-4.06894 -8.14594,-8.10228 -1.34064,-4.14185 -0.75615,-8.3566 -1.4093,-12.570917 -0.72054,-4.79585 -4.43388,-6.86635 -7.93953,-9.26491 -3.40265,-2.325229 -6.4959,-5.086179 -9.7269,-7.629269 -3.02458,-2.39813 -6.3242398,-4.43261 -9.1424098,-7.12065 C 3.6019388,71.570681 0.81102765,65.181408 0.06142046,61.135301 M 74.057879,16.778754 c -1.44363,-3.34247 2.16544,-7.12065 4.02148,-9.37383 2.23325,-2.72492 5.522331,-6.51459216 8.203171,-8.6579921 m 21.07382,-0.3232324 c -0.92823,3.34247 -3.22346,9.3080145 -5.59701,11.8154945 -2.612175,2.7974 -5.911836,3.59678 -9.211072,5.12306 -3.058914,1.45338 -5.806719,3.74216 -9.176739,4.39616 -2.92159,0.54507 -7.8022,0.21785 -9.3145,-3.01568"
   style="opacity:0.15445;fill:none;stroke:#ffffff;stroke-width:0.211924px;stroke-miterlimit:10"
   id="path3-4"
   sodipodi:nodetypes="cccccccccccccccccccccccccccccccccccccccccccccccccccccccccscccccccccccccccccccccccccccccccccccccccccccccccccccccccccccccccccccccccccccccccccccccccccccccccsccccccccccccccccscccccccccccccccccccccccccccccccccccccccccccccccccccccccccccccscccccccccccccccccccccccccccccccsccccccccscccccccccccccccccccccccccccccccccccccccccccccccccccccccccccccccccccccccccccccccccc" /><path
   style="opacity:0.86911;fill:#ffffff;fill-opacity:1;stroke-width:0.134311"
   d="m 69.279399,177.84745 v -1.88037 h 0.594751 0.59475 l 0.284345,-0.75997 c 0.257549,-0.68837 0.266598,-0.80544 0.09603,-1.24238 -0.103581,-0.26532 -0.957248,-2.43159 -1.897048,-4.81394 l -1.708725,-4.33154 h -0.660943 -0.660937 v -1.81319 -1.81322 h 3.223467 3.22347 v 1.81322 1.81319 h -0.335776 c -0.18468,0 -0.335852,0.0453 -0.335943,0.10077 -3.23e-4,0.23682 1.397498,4.46585 1.47616,4.46585 0.08259,0 1.622799,-4.25564 1.616284,-4.46585 -0.0016,-0.0554 -0.154223,-0.10077 -0.338899,-0.10077 h -0.335781 v -1.81319 -1.81322 h 3.156315 3.156315 v 1.81322 1.81319 h -0.587539 -0.587533 l -2.247812,5.40603 c -1.236294,2.97331 -2.277832,5.48157 -2.314525,5.57392 -0.04813,0.1211 0.12443,0.16788 0.619211,0.16788 h 0.685924 v 1.88037 1.88035 h -3.35778 -3.357778 z m 43.113891,-2.64465 c -0.79393,-0.13275 -2.05544,-0.6321 -2.78007,-1.10045 -1.98022,-1.27988 -3.14208,-3.42832 -3.16806,-5.85815 -0.0235,-2.2002 0.61519,-3.85468 2.05312,-5.31817 4.64066,-4.72321 12.73256,-0.87849 12.02654,5.71418 l -0.0942,0.87993 h -5.09313 c -2.80123,0 -5.09314,0.0517 -5.09314,0.115 0,0.0633 0.21054,0.39073 0.46787,0.72775 0.49548,0.64892 1.4815,1.22121 2.37675,1.37951 0.66225,0.11709 1.80893,-0.14238 2.42422,-0.54854 0.47426,-0.31309 0.60409,-0.3306 2.45117,-0.3306 1.24183,0 1.9504,0.05 1.9504,0.1376 0,0.32872 -1.16035,1.93211 -1.83046,2.52936 -1.53723,1.37011 -3.69942,2.00558 -5.69097,1.67258 z m 4.43228,-8.6845 c 0,-0.37381 -0.82666,-1.30256 -1.50339,-1.68906 -1.22474,-0.69946 -2.62688,-0.67351 -3.76936,0.0698 -0.52892,0.3441 -1.3085,1.30885 -1.3085,1.61929 0,0.14727 0.61771,0.18131 3.29062,0.18131 2.67292,0 3.29063,-0.034 3.29063,-0.18131 z m 19.94521,8.63997 c -3.36042,-0.67452 -5.71019,-3.50161 -5.74667,-6.91407 -0.0235,-2.2002 0.61519,-3.85468 2.05312,-5.31817 4.64066,-4.72321 12.73257,-0.87849 12.02655,5.71418 l -0.0942,0.87993 h -5.09314 c -2.80123,0 -5.09313,0.0517 -5.09313,0.115 0,0.0633 0.21053,0.39073 0.46787,0.72775 0.49548,0.64892 1.4815,1.22121 2.37674,1.37951 0.66226,0.11709 1.80894,-0.14238 2.42422,-0.54854 0.47426,-0.31309 0.60411,-0.3306 2.45118,-0.3306 1.24183,0 1.95039,0.05 1.95039,0.1376 0,0.0757 -0.24717,0.52897 -0.54927,1.00732 -1.54393,2.44465 -4.41251,3.7043 -7.17362,3.15009 z m 4.63374,-8.63997 c 0,-0.37381 -0.82666,-1.30256 -1.50338,-1.68906 -1.22475,-0.69946 -2.62689,-0.67351 -3.76937,0.0698 -0.52891,0.3441 -1.30849,1.30885 -1.30849,1.61929 0,0.14727 0.61771,0.18131 3.29062,0.18131 2.6729,0 3.29062,-0.034 3.29062,-0.18131 z m 10.71558,8.56866 c -2.37257,-0.57519 -4.48495,-2.55098 -5.22334,-4.88556 -0.36332,-1.1487 -0.39121,-2.9802 -0.0625,-4.10619 1.0927,-3.74365 4.8887,-5.98778 8.63443,-5.10456 3.32603,0.78425 5.5571,3.56975 5.56478,6.94767 0.005,2.13508 -0.62479,3.68882 -2.08889,5.15452 -1.84967,1.8517 -4.37187,2.5887 -6.82443,1.99412 z m 2.6129,-3.84612 c 0.71028,-0.21281 1.7646,-1.18047 2.04226,-1.87444 0.30705,-0.76739 0.29363,-1.96747 -0.0302,-2.69951 -0.50194,-1.13473 -1.75178,-1.98194 -2.9238,-1.98194 -2.2692,0 -3.88182,2.62025 -2.90274,4.71648 0.33124,0.70921 0.48476,0.89813 1.09659,1.34942 0.85933,0.63388 1.71982,0.78901 2.71789,0.48999 z m -107.816417,3.82903 c -0.923025,-0.2068 -1.662239,-0.55024 -2.296842,-1.06714 l -0.72516,-0.59065 v 0.74026 0.74026 h -2.686224 -2.686225 v -1.88036 -1.88035 h 0.740252 0.740252 l -0.03512,-5.33888 -0.03512,-5.33887 -0.705135,-0.0406 -0.705133,-0.0406 v -1.80618 -1.80618 h 2.686225 2.686223 v 2.91404 2.91404 l 0.436513,-0.42201 c 1.913208,-1.84965 5.533709,-1.55083 7.820968,0.64551 2.291982,2.20087 2.868794,5.57338 1.461883,8.54735 -0.532761,1.12617 -1.90084,2.49854 -3.054893,3.06449 -1.272506,0.62402 -2.649905,0.86824 -3.642468,0.64588 z m 1.410266,-3.94886 c 1.24837,-0.56509 2.013383,-1.73646 2.010408,-3.07829 -0.0041,-1.87474 -1.373028,-3.27136 -3.21921,-3.28444 -3.831437,-0.0271 -4.502371,5.39257 -0.806736,6.51673 0.607725,0.18486 1.400815,0.12426 2.015538,-0.154 z m 7.924362,1.89123 v -1.88035 h 0.671555 0.671556 v -3.15633 -3.15631 h -0.671556 -0.671555 v -1.81319 -1.81322 h 2.484758 2.484755 v 1.02539 1.02536 l 0.731155,-0.76097 c 0.787711,-0.8198 1.569304,-1.24204 2.5473,-1.37608 l 0.616574,-0.0846 v 2.0218 2.0218 l -0.675994,0.14497 c -1.254766,0.2691 -1.979908,0.7799 -2.495164,1.75764 -0.196622,0.37311 -0.257904,0.84957 -0.297044,2.30941 l -0.04932,1.83931 0.717846,0.041 0.717844,0.0411 0.03736,1.84677 0.03736,1.84678 H 59.679917 56.25119 Z m 25.116199,0 v -1.88035 h 0.671557 0.671551 v -3.15633 -3.15631 H 82.038967 81.36741 v -1.81319 -1.81322 h 2.484756 2.484756 v 0.95823 0.95821 l 0.731155,-0.76096 c 0.975408,-1.01516 1.729149,-1.35138 3.029556,-1.35138 0.744178,0 1.171395,0.0751 1.635331,0.28746 0.761193,0.34841 1.717362,1.20557 2.065065,1.85122 0.14064,0.26115 0.287303,0.47351 0.325907,0.47187 0.03859,-0.002 0.25101,-0.27232 0.472021,-0.60155 1.027775,-1.53111 3.078305,-2.35137 4.900915,-1.96048 1.510508,0.32393 2.823718,1.2574 3.427078,2.43608 0.47949,0.93671 0.60481,1.95498 0.60481,4.91461 v 2.7217 l 0.70513,0.0406 0.70513,0.0406 0.0374,1.84678 0.0374,1.84678 h -2.75716 -2.757178 l -0.003,-4.19723 c -0.002,-3.82859 -0.0253,-4.24644 -0.25736,-4.75757 -0.29726,-0.65473 -0.73699,-0.98142 -1.44961,-1.07701 -1.18025,-0.1583 -2.26825,0.5448 -2.579957,1.66727 -0.07749,0.27903 -0.141226,1.42904 -0.141642,2.55558 l -0.0015,2.04825 h 0.738709 0.73871 v 1.88035 1.88036 h -2.753406 -2.753373 v -4.34525 c 0,-4.29393 -0.0037,-4.35065 -0.304877,-4.80163 -0.352563,-0.52775 -1.060945,-0.92595 -1.647756,-0.92626 -0.705612,-3.2e-4 -1.569312,0.53705 -1.942391,1.2086 -0.314029,0.56525 -0.338682,0.74966 -0.380563,2.8467 l -0.0448,2.24231 0.71634,0.041 0.716339,0.041 0.0374,1.84678 0.03739,1.84678 h -3.428434 -3.42873 z m 42.17373,-3.15631 v -5.03668 h -0.94018 -0.94019 v -1.81319 -1.81322 h 0.94019 0.94018 v -2.21612 -2.21614 h 2.01466 2.01467 v 2.21614 2.21612 h 0.94017 0.94018 v 1.81322 1.81319 h -0.94018 -0.94017 v 3.15631 3.15633 h 1.00733 1.00733 v 1.88035 1.88036 h -3.02199 -3.022 z"
   id="path8"
   sodipodi:nodetypes="ccccssscccccccccscscscccccccccsssccccccssssscssssssssssssssssssscssssssssssssssssssssssssscsssssccsccccccccccccccccsssssscsssccccccccccccccsscccsssccccccccccccccccccccccsssssssssccccccccsssccccccccsscsscccccccccccccccccccccccccccccccccccccccccc" /><path
   id="path9"
   style="fill:#f49e00;fill-opacity:1;stroke-width:0.541602"
   inkscape:transform-center-x="-4.9574443"
   inkscape:transform-center-y="11.386272"
   d="m 56.61457,24.119805 c -0.352781,-0.01062 -0.689424,0.05567 -0.996094,0.185547 -0.920004,0.38954 -1.572172,1.349841 -1.595703,2.503906 -0.01049,0.488647 0.301571,1.372457 2.050781,5.804688 2.323958,5.887731 2.360568,5.951561 3.640625,6.314453 0.808178,0.229143 2.122899,-0.141764 2.628906,-0.742187 0.478178,-0.567386 0.637684,-0.956866 0.675782,-1.646485 0.03181,-0.576458 -0.137613,-1.073828 -2.042969,-5.917969 -1.341099,-3.411144 -2.182575,-5.399505 -2.369141,-5.605468 -0.392068,-0.432976 -1.381611,-0.878153 -1.992187,-0.896485 z m 29.253906,0.716797 c -0.22906,0.0129 -0.45672,0.05272 -0.673828,0.121094 -0.385974,0.121526 -0.740413,0.3323 -1.025391,0.636719 -0.48055,0.513311 -4.772817,10.44467 -4.785156,11.072265 -0.01594,0.808174 0.580138,1.899248 1.263672,2.3125 1.062379,0.64245 2.390179,0.472673 3.230469,-0.414062 0.282262,-0.297897 1.213778,-2.268246 2.654296,-5.619141 2.367207,-5.506718 2.444333,-5.781718 1.865235,-6.820312 -0.382682,-0.686299 -1.086042,-1.11093 -1.841797,-1.246094 -0.226726,-0.04054 -0.45844,-0.05587 -0.6875,-0.04297 z M 70.120429,41.108086 c -2.448249,0.05718 -4.865505,0.525306 -7.154297,1.390626 -2.466006,0.932328 -4.780729,2.327793 -6.822265,4.164062 -5.174356,4.654166 -7.66933,11.606444 -6.736329,18.779297 0.289659,2.226943 0.723299,3.782469 1.736329,6.244141 l 0.273437,0.667968 1.3125,-0.324218 c 8.929173,-2.203116 18.785901,0.34326 25.619141,6.615234 0.77932,0.715315 1.764239,1.700383 2.1875,2.189453 0.878369,1.014964 0.785331,1.014548 2.232422,0.01758 3.536165,-2.436128 6.172384,-5.614646 7.820312,-9.421875 3.291046,-7.6033 2.062044,-16.27388 -3.199219,-22.585937 -2.054112,-2.464308 -4.371262,-4.252934 -7.287109,-5.617188 -2.430885,-1.137357 -4.978815,-1.812401 -7.527344,-2.039062 -0.819169,-0.07286 -1.638995,-0.09914 -2.455078,-0.08008 z m -34.871094,3.703126 c -0.334933,-0.01166 -0.592123,0.05798 -0.890625,0.173828 -1.749414,0.678956 -2.219555,3.063888 -0.841796,4.265625 0.599243,0.522673 10.638588,4.87225 11.224609,4.863281 0.581029,-0.0089 1.468402,-0.379783 1.875,-0.78711 0.450308,-0.451038 0.81217,-1.51427 0.742187,-2.175781 -0.03955,-0.372363 -0.187139,-0.733891 -0.470703,-1.162109 -0.396073,-0.60112 -0.597266,-0.707865 -5.552734,-2.886719 -3.360237,-1.477578 -4.831991,-2.094759 -5.720703,-2.25 -0.133307,-0.02329 -0.25359,-0.03713 -0.365235,-0.04102 z m 71.591805,1.175781 c -0.67297,-0.05096 -0.86002,0.01273 -6.00977,2.044922 -6.04277,2.384762 -6.099182,2.416406 -6.375003,3.714843 -0.395924,1.864251 1.115924,3.446712 3,3.134766 0.906378,-0.15005 9.888103,-3.692159 10.583993,-4.173828 1.09205,-0.75601 1.4715,-2.265208 0.8496,-3.373047 -0.43737,-0.778995 -1.20668,-1.283937 -2.04882,-1.347656 z m -6.72266,32.40039 c 0.67118,0.293688 1.23501,0.526237 1.87695,0.798829 0.0501,-0.111458 0.0968,-0.225116 0.13672,-0.339844 -0.71433,-0.210519 -1.39464,-0.372613 -2.01367,-0.458985 z m -14.814457,9.976563 c -0.0463,-6.62e-4 -0.09433,0.0021 -0.140625,0.002 0.01405,0.03114 0.02861,0.06301 0.04492,0.09375 0.03196,-0.03157 0.0642,-0.06379 0.0957,-0.0957 z m 9.634765,7.5625 c -0.0032,-0.04518 -0.03252,0.08476 -0.04883,0.126953 -0.01603,-0.06783 -0.08196,0.201166 -0.0918,0.347656 0.08602,-0.163677 0.146749,-0.325101 0.140624,-0.474609 z" /><path
   d="m 89.332763,117.73157 v -6.56425 h 2.344367 2.344361 V 100.14875 89.130178 H 91.67713 89.332763 v -6.3298 -6.329852 h 8.674163 8.674194 v 3.345082 3.34512 l 2.55242,-2.65646 c 3.40513,-3.543915 6.03637,-4.717643 10.57606,-4.717643 2.59789,0 4.0893,0.262176 5.70887,1.00351 2.6573,1.216301 5.99525,4.208643 7.20906,6.462563 0.49097,0.91168 1.00296,1.65299 1.13773,1.64729 0.13476,-0.008 0.87626,-0.95066 1.6478,-2.10002 3.58792,-5.345046 10.74623,-8.208552 17.1089,-6.843976 5.27312,1.130844 9.85744,4.389586 11.96377,8.504316 1.67391,3.26997 2.11138,6.824719 2.11138,17.156682 v 9.50133 l 2.46158,0.14159 2.4616,0.1416 0.13062,6.44704 0.13062,6.44703 h -9.62517 -9.62518 l -0.01,-14.65235 c -0.008,-13.36544 -0.0882,-14.82416 -0.89844,-16.608503 -1.03775,-2.28562 -2.57282,-3.426099 -5.06055,-3.759789 -4.12019,-0.55263 -7.91836,1.901869 -9.00651,5.820342 -0.27051,0.97411 -0.49302,4.98876 -0.49447,8.92146 l -0.006,7.15033 h 2.5788 2.57884 v 6.56424 6.56427 h -9.61206 -9.61191 v -15.16909 c 0,-14.98991 -0.0124,-15.187953 -1.06431,-16.762273 -1.2308,-1.84236 -3.70373,-3.232499 -5.75224,-3.233549 -2.46328,-0.001 -5.47841,1.874829 -6.78083,4.219159 -1.09626,1.973243 -1.18232,2.617033 -1.32853,9.937733 l -0.1564,7.82779 2.50074,0.14314 2.5007,0.14312 0.13062,6.44704 0.13062,6.44703 H 101.3012 89.331662 Z"
   style="fill:#ffffff;stroke-width:0.468872"
   id="path1-8" /></g><g
     id="g5">&#10;	<defs
   id="defs3">&#10;		<path
   id="path6"
   d="m 110,102 c 0,0 13.5,-0.1 19,0 5.5,0.1 16.3,6.7 16,17 -0.3,10.5 -7.2,13.9 -14,16 -7.9,2.4 -21,1 -21,1 z m 0,-44 c 0,0 9.5,-0.2 16,0 5.6,0.2 15.2,4.6 15,13 -0.2,8.4 -5.9,14.6 -14,15 -8.1,0.4 -17,0 -17,0 z M 38,44 h -8 v 108 c 0,0 85,-0.1 97,0 14.3,0.1 35.5,-10.7 36,-29 0.6,-22.9 -14,-30 -14,-30 0,0 10.2,-6 10,-25 -0.2,-21.1 -17.7,-26.1 -32,-26 -20.1,0.2 -47,2 -47,2 0,0 18.7,6.4 19,23 0.3,16.6 -9,24 -9,24 0,0 13.6,9.6 13,26 -0.6,16.4 -13.7,29.2 -30,31 -16.3,1.8 -34,-6 -34,-6 l 5,-14 c 0,0 15,7.1 26,4 11,-3.1 17.7,-11.2 16,-19 -1.9,-8.9 -8.6,-12.9 -14,-13 -4.2,0 -15,0 -15,0 V 84 c 0,0 8.2,0 14,0 3.5,0 9.5,-4.1 11,-9 1.5,-4.9 -0.2,-12.7 -6,-15 -5.8,-2.3 -12.6,-3.3 -22,-3 -8.5,0.3 -13,1 -13,1 z" />&#10;	</defs>&#10;	<clipPath
   id="SVGID_6_">&#10;		<use
   xlink:href="#SVGID_5_"
   overflow="visible"
   id="use3" />&#10;	</clipPath>&#10;	&#10;</g><path
     d="m 55.520778,125.28167 c -3.222216,-0.72198 -5.802806,-1.92091 -8.018178,-3.72537 l -2.531502,-2.06193 v 2.58421 2.58421 h -9.377484 -9.37751 v -6.56427 -6.56425 h 2.584187 2.584186 L 31.261756,92.896487 31.139034,74.258708 28.677437,74.117112 26.215866,73.975504 v -6.3053 -6.305314 h 9.377486 9.377509 v 10.172804 10.172804 l 1.523839,-1.47323 c 6.678923,-6.457055 19.317951,-5.413879 27.302681,2.25346 8.001235,7.683139 10.014849,19.456452 5.103391,29.838462 -1.859846,3.93139 -6.635755,8.72225 -10.664513,10.69796 -4.442274,2.17843 -9.25072,3.03105 -12.715719,2.25474 z m 4.923194,-13.78533 c 4.358014,-1.9727 7.02864,-6.06191 7.018256,-10.74617 -0.01531,-6.54469 -4.79318,-11.420192 -11.238134,-11.465892 -13.375397,-0.0946 -15.717593,18.825262 -2.816278,22.749652 2.121533,0.64535 4.890181,0.43379 7.036156,-0.53759 z"
     style="fill:#ffffff;stroke-width:0.468872"
     id="path1" /></g></svg>
